<svg xmlns="http://www.w3.org/2000/svg" viewBox="0 0 1919 986.3"><path d="M0 0v986.3h1919V0H0zm185.4 939.5c-.2.6-.3 1.3-.6 1.9-1 2.4-2.5 4.4-4.7 5.9-1.8 1.3-3.9 2.2-6.1 2.5-.7.1-1.5.1-2.2.1-1.3 0-2.6-.3-3.9-.7-.7-.2-1.4-.6-2.1-1-.9-.5-1.7-1-2.5-1.7-1.3-1.1-2.3-2.4-3.1-3.9-.3-.6-.6-1.1-.8-1.7-.7-2.1-1-4.2-.6-6.4.3-1.8.8-3.4 1.7-4.9.6-.9 1.2-1.8 2-2.6.9-.9 1-1 .4-2.1-.7-1.2-1.2-2.4-1.9-3.6-1.8-2.9-3.7-5.7-6.8-7.5-.5-.3-.9-.5-1.4-.8-.3-.2-.6-.1-.8.2-.7.8-1.6 1.6-2.5 2.2-1.8 1.3-3.8 2.2-5.9 2.8-1.7.5-3.4.8-5.2.9-2.4.1-4.8 0-7.2-.5-1.2-.3-2.3-.6-3.4-1-2.8-1-5.2-2.4-7.4-4.3-.8-.7-1.5-1.4-2.2-2.2-.3-.3-.5-.4-.9-.2-.8.3-1.6.6-2.4 1-.9.4-1.7 1-2.5 1.5-1.4 1-2.7 2.1-3.8 3.3-.9 1-1.8 2.1-2.6 3.3-1.1 1.6-2 3.3-2.9 5-.4.7-.7 1.5-.9 2.2-.1.3-.2.6-.7.5.3.8.9 1.2 1.2 1.9.4.8.6 1.5.8 2.4.3 1 .3 1.9.3 2.9 0 1.2-.2 2.5-.6 3.7-.5 1.7-1.4 3-2.7 4.2-.8.8-1.8 1.3-2.8 1.7-.6.2-1.2.4-1.8.5-1 .2-2.1.3-3.2.3-.8 0-1.5-.2-2.3-.3-1.1-.2-2.1-.6-2.9-1.3-2.2-1.7-3.6-4.1-4.2-6.8-.2-1-.5-1.9-.4-2.9.1-1.5.5-3 1.2-4.4.7-1.3 1.5-2.4 2.6-3.3 1.3-1.1 2.8-1.8 4.6-2.1 1.4-.2 2.8-.3 4.1 0 .5.1.8 0 1.1-.5 1.7-2.4 3.3-4.8 4.8-7.3 1.4-2.4 2.7-4.9 3.7-7.5.5-1.1.7-2.3 1.2-3.4.2-.4.1-.7-.3-.9-.9-.5-1.8-1.1-2.7-1.8-1.3-1-2.5-2.1-3.4-3.4-.9-1.2-1.8-2.4-2.4-3.8-.5-1.3-1.1-2.5-1.4-3.9-.3-1.1-.5-2.3-.7-3.4-.1-1-.3-2-.2-3 0-.7.1-1.4.1-2.2.1-1.3.3-2.6.6-3.9.2-.8.4-1.5.6-2.3.6-1.6 1.2-3.1 2-4.6.8-1.6 1.6-3.2 2.1-5 .2-.8.3-1.5.4-2.3.2-.9-.1-1.7-.6-2.4-.1-.1-.1-.2-.2-.3.4-.1.8-.1.9-.7.1-.5.9-.4 1.1.1.3.7.5.6.7 0 .1-.4.8-.3.7-.7 0-.4-.6-.3-.8-.7-.2-.6-1-.6-1.1-1.2 0-.1-.2-.1-.3 0-.1.7-1 .7-1.2 1.4-.1.3-.6.4-.9.6-1.1-1.5-2.2-3-3.4-4.4-1.5-1.7-3.2-3.2-5-4.5-1-.8-2.1-1.5-3.1-2.2-.8-.5-1.8-.9-2.6-1.4-1.3-.8-2.7-1.3-4.1-1.9-.3-.1-.5-.5-.9-.4s-.6.4-.8.7c-1 1.1-2.3 1.9-3.6 2.6-1.4.7-3 1.2-4.6 1.3s-3.1 0-4.6-.5c-1.3-.4-2.6-.9-3.6-1.8.2-.5.3-1.1 1-1.2.1 0 .2-.2 0-.4-.1-.1-.1-.1-.2-.1-.4-.1-.4-.6-.7-.8-.6-.3-.3.6-.7.6-.4.1-.6.3-.9.6-1.2-1.1-2.2-2.3-2.8-3.8-.5-1.1-1-2.3-1.1-3.6-.1-.9-.2-1.8-.1-2.6.1-1.3.3-2.6.9-3.9.4-.9.8-1.8 1.4-2.6 1.5-2.2 3.5-3.8 6-4.8 2.7-1.1 5.5-1.2 8.2-.3 3.2 1 5.7 2.9 7.4 5.8.4.7.7 1.4 1 2.1-.4.3-.5-.1-.7-.4-.2-.3-.3-.3-.5 0 0 0 0 .1-.1.1-.6.9-.6.9-.4 1 .5.1.4.9 1 1 .2 0 .3.2.3.3.2.7.5.4.8.1.3 1.1.2 2.2.2 3.3 0 .1 0 .2-.1.3-.2.7.1 1.2.7 1.6 1.1.7 2.1 1.6 3.3 2.3.8.5 1.7.9 2.5 1.4 1.5.9 3.2 1.5 4.8 2.2 1.6.6 3.2 1.2 4.9 1.6 1.6.4 3.2.7 4.9.9.6.1.9-.1 1.2-.5 1-1.4 2.3-2.6 3.8-3.6 1.2-.8 2.3-1.7 3.7-2.3 1.2-.5 2.4-1.1 3.7-1.5 1.1-.4 2.3-.6 3.4-.9 1.2-.3 2.4-.5 3.6-.6 1.4-.1 2.8-.1 4.1-.3.9-.1 1.8-.4 2.8-.6 1.5-.4 2.9-1 4.3-1.8.9-.5 1.3-1.3 1.6-2.2.3-1.1.5-2.2.6-3.4.1-1.6 0-3.3.1-4.9v-23.6c0-.9-.1-1.8-.1-2.7-.1-1.4-.4-2.7-.6-4-.1-.5-.3-.9-.5-1.3 0-.1-.1-.2-.2-.2-.5 0-.9-.3-1.4-.4-.9-.1-1.6-.6-2.4-.9-.9-.4-1.7-.9-2.5-1.5-2.1-1.6-3.7-3.6-4.9-6-1.3-2.7-1.8-5.6-1.4-8.5.2-1.3.4-2.5.9-3.7.8-2.1 1.9-4 3.6-5.5.3.5 1.1.4 1.2 1.2 0 .2.3.1.4 0 .1-.1.1-.1.1-.2.1-.5.7-.4.8-.8.1-.4-.7-.3-.7-.8 0-.3-.2-.5-.3-.7 1.1-1 2.2-1.7 3.6-2.2.2-.1.4-.2.5-.3 1.2-.5 2.4-.8 3.7-.9.7-.1 1.4-.2 2.1-.2 2.4.1 4.6.5 6.7 1.6 2.9 1.5 5.3 3.6 6.9 6.4.6 1.1 1.1 2.2 1.4 3.4.3 1.1.6 2.3.6 3.5.1 1.9-.1 3.9-.8 5.7-.3 1-.7 1.9-1.2 2.8-1.2 2.1-2.6 3.9-4.6 5.3-.7.5-1.4.9-2.2 1.4-.3.2-.5.4-.7.8-.8 2.5-1.1 5.1-1.2 7.7 0 1.1-.1 2.1-.1 3.2 0 .8-.1 1.6-.1 2.4 0 1 0 2.1-.1 3.1-.1.6-.1 1.3 0 2v4.4c0 1 .1 2 .1 3 0 .8 0 1.7.1 2.6.1.7 0 1.3.1 2 .1 1.5.4 3.1.6 4.6.2 1.3.7 2.5 1 3.8.2.8.5.9 1.4.9.8 0 1.6 0 2.4.1 2.3.3 4.6.7 6.8 1.5 1.8.7 3.6 1.4 5.2 2.5.4.3.8.6 1.1.9-.3.2-.7.3-.7.8 0 .3-.3.4-.5.4-.3 0-.5-.1-.6-.4-.1-.2-.1-.5-.3-.4-.2 0-.3.2-.3.4-.1.5-.8.3-.8.8 0 .4.7.2.8.7.1.6 1 .6 1.1 1.2 0 .1.2.1.3 0 .6-.9 1.6-1.4 2.2-2.3 1.6 1.6 2.6 3.5 3.3 5.7.2.6.3 1.3.4 2 .2 1.2.4 2.5.6 3.7.1.4.3.8.4 1.2.4 1.6 1.2 3 1.9 4.4 1.3 2.3 3 4.3 4.9 6.1 1.5 1.4 2.8 3 3.8 4.9.5.9 1 1.7 1.3 2.7.4 1.2.9 2.4 1.2 3.7.3 1.5.5 2.9.5 4.4 0 1 0 2-.2 3-.1.8-.2 1.5-.3 2.3s-.3 1.5-.5 2.2-.4 1.4-.6 2c-.8 1.8-1.6 3.6-2.8 5.1-1.1 1.4-2.2 2.7-3.6 3.8-1.9 1.5-3.8 3-6 3.9-.7.3-1.4.8-2.1 1-1.2.3-2.2 1-3.5 1.1-.5 0-.8.5-.8.9-.1 1.2-.2 2.4-.2 3.6.1 1.7.3 3.3.8 5 .5 1.8 1.3 3.5 2.1 5.1.4.7.9 1.4 1.3 2 .7 1 1.4 1.9 2 2.9.2.3.4.3.8.2 1.3-.4 2.6-.5 4-.6 1.7 0 3.4.3 5 .9 1.2.4 2.2 1.1 3.3 1.9.9.6 1.6 1.4 2.3 2.2 1 1.3 1.9 2.7 2.4 4.3.3 1.1.6 2.2.7 3.4.2 1.6 0 2.9-.3 4.2zm2.6-90.4c-1.1-.8-1.8-1.8-2.3-3.1-.3-.9-.6-1.8-.6-2.7 0-1 .2-1.9.6-2.9.4-.9.9-1.8 1.6-2.5 1.3-1.3 2.8-1.9 4.6-2 1.9-.1 3.8-.4 5.7-.9 1.5-.5 2.9-1.2 4.1-2.2 1.2-1.1 1.9-2.4 2.2-4 .2-1.5-.2-2.8-.5-4.3-.2-1.5 0-2.9.7-4.2.5-.9 1-1.6 1.8-2.3.6-.5 1.3-.9 2-1.2 3.5-1.4 6.3-3.5 8.6-6.5.4-.5.7-1.1 1.1-1.6.9-1.5 0-3.7-1.9-4.1-1.1-.3-2 0-2.7.8-.9.9-1.6 1.9-2.4 2.8-1.1 1.3-2.6 2.2-4.1 2.9l-1.5.6c-1.2.3-2.2 0-3.1-.8-.7-.6-.8-1.5-.6-2.4l.3-2.7c0-1-.1-2-.1-3.1 0-.7-.1-1.3-.2-2-.2-1.4-.1-2.8 0-4.2.1-1.1.5-2.2 1-3.2.6-1.2 1.4-2.3 2.3-3.3 1.1-1.1 2.5-1.9 4-2.3 1.4-.4 2.7-.8 3.9-1.5.8-.5 1.5-1.2 2.3-1.8 1.2-1.1 2.3-2.4 3.2-3.8.3-.4.4-.9.6-1.3 1-2.2 1.3-4.5.7-6.9-.5-2-1.5-3.7-2.9-5.1-.6-.7-1.4-1.2-2.1-1.8a9.64 9.64 0 01-2.9-4.2c-.4-1.4-.5-2.8-.2-4.2.5-2.3 1.7-4.1 3.6-5.5.7-.5 1.5-.6 2.2-1.1.1-.1.4 0 .5-.1.2-.1.3 0 .4.1.2.2.4.3.5 0 .1-.2.4-.3.6-.3.5-.1.8.7 1.1.5.4-.2.6-.4 1.1-.4.4 0 .6.7 1 .2.6 0 1.1.4 1.6.7 2.1 1.3 3.6 3.1 4.2 5.5.1.5.2 1 .2 1.6 0 .9.1 1.7.1 2.6.1 2.3.5 4.5 1.5 6.5.8 1.5 1.8 2.8 3.1 3.9 1.1 1 2.4 1.7 3.8 2.2 2.4.9 4.8 1.1 7.3.7 2.5-.3 4.7-1.3 6.7-2.7 1.4-.9 2.6-2 3.8-3.1 1.1-1 3.1-.5 3.4 1.1.3 1.8.7 3.5 1 5.3.1.5.3.9.4 1.3.6 2.4 1.9 4.3 3.8 5.9.8.7 1.5 1.4 2.3 2.1 1.3 1 .7 2.9-.7 3.5-1.6.8-3.3 1.1-5.1 1-1.6-.1-3.1-.3-4.6-.7-.5-.1-1 0-1.4.2-1.6.8-2.5 2.4-1.5 4.2.3.5.7.9 1.3 1.1 2 .6 4 1 6 1 1 0 2.1-.1 3.1-.3 2.5-.5 4.8-1.5 6.8-3.1 1.9-1.6 2.9-3.6 2.8-6.1 0-1-.2-2.1-.5-3.1-.4-1.7-.5-3.4.2-5.1.7-1.5 1.7-2.7 3.1-3.5 1.1-.7 2.3-1 3.6-1.1 1.2-.1 2.4.1 3.5.7 1.9 1 3.3 2.5 3.9 4.6.5 1.6.6 3.3-.1 4.9-.6 1.5-1.5 2.8-3.1 3.6-1 .5-2 1.1-2.9 1.8-1 .8-1.7 1.7-2.3 2.8-.8 1.6-.9 3.4-.8 5.1 0 1.6.1 3.2.3 4.8.2 1.1.5 2.2.8 3.3.5 1.8.7 3.6.8 5.4.2 2.7 0 5.3-.2 8 0 .1-.1.3-.1.4-.2-.1-.2-.4-.4-.4-.5.6-1.1 1.2-1.8 1.7-.2.2-.3.3 0 .5s.5.4.7.7.4.3.5-.1c.1-.4.3-.7.8-.4 0 1.9.4 3.7 1.1 5.5-.4.3-.7.2-.9-.3-.2-.5-.4-.4-.6 0-.1.4-.7.4-.8.7 0 .4.6.3.7.7.2.7.4.5.7 0 .1-.3.4-.4.6-.4.3 0 .5.1.6.4.1.4.3.5.7.5.6.7 1.2 1.5 1.9 2.2.4.5.6 1 .6 1.6.1.7-.3 1.3-.8 1.7-.4.3-.9.5-1.4.6-1.8 0-3.5.4-5.2.9-2.7.8-5 2.3-6.6 4.7-.8 1.1-1.3 2.4-1.5 3.8-.2 1 .1 2.1.6 3.1.8 1.6 2 2.7 3.7 3.4.6.2 1.2.2 1.8.4.6.2 1.2.3 1.8.6 1.4.6 2.4 1.6 3 3 .8 1.7.9 3.4.5 5.2-.6 2.5-2 4.4-4.4 5.4-1.4.6-2.9.8-4.4.4-1.1-.3-2.1-.6-3-1.3-1.3-1-2.3-2.1-2.7-3.7-.4-1.3-.3-2.7-.2-4.1.2-2 .2-4.1-.7-6-.7-1.5-2-2.5-3.6-2.8-1.2-.2-2.4-.4-3.6-.5-1-.1-1.9-.1-2.9 0-1.1.1-2.2.2-3.3.4-2.1.4-4.1 1-6.1 1.9-.4.2-.9.2-1.3.4-.2.1-.5.1-.8 0-1.5-.4-2.4-1.4-2.8-2.8-.2-.8-.1-1.7.5-2.4.9-1.1 2-1.9 3.2-2.5 1.1-.6 2.2-1.2 3.3-1.7 1.2-.6 2.1-2.9.6-4.4-.3-.3-.6-.5-.8-.7.3-.5.3-1.1 1-1.2.2 0 .2-.3 0-.4l-.1-.1c-.5-.1-.4-.6-.7-.8-.6-.3-.3.6-.7.7-.4.1-.6.3-.7.7-.1.2-.3.2-.4.3-.3.1-.2.3-.1.5-1.9.6-3.7 1.5-5.5 2.5-.9.5-1.7 1.2-2.5 1.9-.6.5-1.1 1.2-1.7 1.7-.5-.1-1-.1-1.2-.8-.1-.3-.4-.3-.5.1-.1.4-.3.5-.6.6-.2.1-.4.3-.2.4.6.2.7.7.9 1 .1.1.3.1.4.3-.6 1-1.1 2.1-1.6 3.1-.6 1.5-.9 3-1.3 4.5-.4 1.3-.5 2.6-1.1 3.8-.1.1 0 .3-.1.5-.3 1.4-1.2 2.2-2.6 2.2-1.7 0-2.6-.6-3-2.3-.1-.5-.4-1-.5-1.5-.3-1.5-.9-2.9-1.3-4.4-.3-1-.9-2-1.3-2.9-.7-1.4-1.8-2.6-2.9-3.6-.8-.7-1.7-1.2-2.6-1.5-2.6-1-5.2-1-7.9-.4-2.2.5-3.8 1.8-5.1 3.5-.9 1.2-1.7 2.5-2.2 4-.8 2.2-2.3 3.7-4.5 4.4-2.4.9-4.8.5-7-1.1zm99.9 79.9c-3.5.3-6.6-1.6-8.1-4.7l-4.1.4-3.1 1.5c-.7.3-1.2 1-1.3 1.8-.3 2.1-.8 4.1-1.6 6.1-.3.7-.2 1.4.1 2l1.1 2 3.1 2.1c1.6-.6 3.5-.5 5.1.6 2.6 1.8 3.3 5.4 1.3 8-1.7 2.2-4.8 2.8-7.2 1.4-1.5-.9-2.4-2.4-2.7-4l-3.4-2.3-2.1-.3c-.7-.1-1.5.2-2 .7-1.8 1.7-3.9 3.2-6.1 4.4-.7.4-1.2 1.2-1.3 2l-.3 4.4 1.4 5.4c2.3.6 4.2 2.5 4.8 4.9.9 3.8-1.4 7.6-5.2 8.4-3.4.8-6.9-1.2-8-4.6-.8-2.6-.1-5.3 1.7-7.1l-1.4-5.4-2.1-3.4c-.6-.9-1.6-1.4-2.6-1.4-1.8 0-3.6-.2-5.4-.5-1-.2-2.1.1-2.8.9L233 955l-3.1 6.4c.7 1.5.8 3.3 0 4.9-1.4 2.9-4.9 4-7.7 2.4-2.4-1.4-3.5-4.4-2.4-6.9.7-1.7 2.2-2.9 3.9-3.3l3.1-6.5.6-4.3c.1-.8-.2-1.6-.8-2.1-2.5-2-4.6-4.4-6.3-7.2-.4-.7-1.2-1.1-2-1.1H214l-4.8 1.5c-.3 3-2.4 5.6-5.4 6.5-4.1 1.3-8.4-1-9.7-5s.9-8.4 4.9-9.8c2.8-.9 5.8-.2 7.8 1.7l5-1.6 3.7-2.6c.5-.4.8-1 .8-1.7-.1-.7-.1-1.5-.1-2.2 0-4.1.9-8 2.5-11.5.2-.5.2-1.1 0-1.6l-1.1-2.2-3-2.2c-1.7.5-3.5.3-5-.8-2.5-1.9-3-5.6-.9-8 1.8-2.1 5-2.5 7.3-1 1.5 1 2.3 2.5 2.4 4.1l3.3 2.5 3.3.6c2.4-2.2 5.2-4 8.3-5.3l.8-4.7-1-4.9c-2.9-.7-5.3-3-5.9-5.9-.9-4.2 2-8.3 6.4-9.1s8.8 1.9 9.7 6.1c.7 3.1-.8 6.2-3.4 7.9l.9 4.6 2.3 3.6c.1.2.4.4.7.4 5.2 0 10.1 1.4 14.2 4 .2.1.5.2.8 0l3.6-1.6 4.2-4.5c-.2-1.6.2-3.3 1.4-4.6 2.2-2.3 5.9-2.4 8.1-.1 2 2 2 5.3.2 7.4-1.2 1.4-2.9 2-4.6 1.9l-4.2 4.5-1.3 3.6c-.1.3-.1.5.1.8 1.6 2.2 2.9 4.8 3.8 7.4.2.7.8 1.3 1.6 1.5l3.4.9 4.4-.4c1.1-3.1 3.8-5.5 7.1-5.8 4.5-.5 8.5 3.1 8.9 7.9.3 4.7-3 9-7.6 9.4zm785.4-154.7c-.2.6-.3 1.3-.6 1.9-1 2.4-2.5 4.4-4.7 5.9-1.8 1.3-3.9 2.2-6.1 2.5-.7.1-1.5.1-2.2.1-1.3 0-2.6-.3-3.9-.7-.7-.2-1.4-.6-2.1-1-.9-.5-1.7-1-2.5-1.7-1.3-1.1-2.3-2.4-3.1-3.9-.3-.6-.6-1.1-.8-1.7-.7-2.1-1-4.2-.6-6.4.3-1.8.8-3.4 1.7-4.9.6-.9 1.2-1.8 2-2.6.9-.9 1-1 .4-2.1-.7-1.2-1.2-2.4-1.9-3.6-1.8-2.9-3.7-5.7-6.8-7.5-.5-.3-.9-.5-1.4-.8-.3-.2-.6-.1-.8.2-.7.8-1.6 1.6-2.5 2.2-1.8 1.3-3.8 2.2-5.9 2.8-1.7.5-3.4.8-5.2.9-2.4.1-4.8 0-7.2-.5-1.2-.3-2.3-.6-3.4-1-2.8-1-5.2-2.4-7.4-4.3-.8-.7-1.5-1.4-2.2-2.2-.3-.3-.5-.4-.9-.2-.8.3-1.6.6-2.4 1-.9.4-1.7 1-2.5 1.5-1.4 1-2.7 2.1-3.8 3.3-.9 1-1.8 2.1-2.6 3.3-1.1 1.6-2 3.3-2.9 5-.4.7-.7 1.5-.9 2.2-.1.3-.2.6-.7.5.3.8.9 1.2 1.2 1.9.4.8.6 1.5.8 2.4.3 1 .3 1.9.3 2.9 0 1.2-.2 2.5-.6 3.7-.5 1.7-1.4 3-2.7 4.2-.8.8-1.8 1.3-2.8 1.7-.6.2-1.2.4-1.8.5-1 .2-2.1.3-3.2.3-.8 0-1.5-.2-2.3-.3-1.1-.2-2.1-.6-2.9-1.3-2.2-1.7-3.6-4.1-4.2-6.8-.2-1-.5-1.9-.4-2.9.1-1.5.5-3 1.2-4.4.7-1.3 1.5-2.4 2.6-3.3 1.3-1.1 2.8-1.8 4.6-2.1 1.4-.2 2.8-.3 4.1 0 .5.1.8 0 1.1-.5 1.7-2.4 3.3-4.8 4.8-7.3 1.4-2.4 2.7-4.9 3.7-7.5.5-1.1.7-2.3 1.2-3.4.2-.4.1-.7-.3-.9-.9-.5-1.8-1.1-2.7-1.8-1.3-1-2.5-2.1-3.4-3.4-.9-1.2-1.8-2.4-2.4-3.8-.5-1.3-1.1-2.5-1.4-3.9-.3-1.1-.5-2.3-.7-3.4-.1-1-.3-2-.2-3 0-.7.1-1.4.1-2.2.1-1.3.3-2.6.6-3.9.2-.8.4-1.5.6-2.3.6-1.6 1.2-3.1 2-4.6.8-1.6 1.6-3.2 2.1-5 .2-.8.3-1.5.4-2.3.2-.9-.1-1.7-.6-2.4-.1-.1-.1-.2-.2-.3.4-.1.8-.1.9-.7.1-.5.9-.4 1.1.1.3.7.5.6.7 0 .1-.4.8-.3.7-.7 0-.4-.6-.3-.8-.7-.2-.6-1-.6-1.1-1.2 0-.1-.2-.1-.3 0-.1.7-1 .7-1.2 1.4-.1.3-.6.4-.9.6-1.1-1.5-2.2-3-3.4-4.4-1.5-1.7-3.2-3.2-5-4.5-1-.8-2.1-1.5-3.1-2.2-.8-.5-1.8-.9-2.6-1.4-1.3-.8-2.7-1.3-4.1-1.9-.3-.1-.5-.5-.9-.4s-.6.4-.8.7c-1 1.1-2.3 1.9-3.6 2.6-1.4.7-3 1.2-4.6 1.3s-3.1 0-4.6-.5c-1.3-.4-2.6-.9-3.6-1.8.2-.5.3-1.1 1-1.2.1 0 .2-.2 0-.4-.1-.1-.1-.1-.2-.1-.4-.1-.4-.6-.7-.8-.6-.3-.3.6-.7.6-.4.1-.6.3-.9.6-1.2-1.1-2.2-2.3-2.8-3.8-.5-1.1-1-2.3-1.1-3.6-.1-.9-.2-1.8-.1-2.6.1-1.3.3-2.6.9-3.9.4-.9.8-1.8 1.4-2.6 1.5-2.2 3.5-3.8 6-4.8 2.7-1.1 5.5-1.2 8.2-.3 3.2 1 5.7 2.9 7.4 5.8.4.7.7 1.4 1 2.1-.4.3-.5-.1-.7-.4-.2-.3-.3-.3-.5 0 0 0 0 .1-.1.1-.6.9-.6.9-.4 1 .5.1.4.9 1 1 .2 0 .3.2.3.3.2.7.5.4.8.1.3 1.1.2 2.2.2 3.3 0 .1 0 .2-.1.3-.2.7.1 1.2.7 1.6 1.1.7 2.1 1.6 3.3 2.3.8.5 1.7.9 2.5 1.4 1.5.9 3.2 1.5 4.8 2.2 1.6.6 3.2 1.2 4.9 1.6 1.6.4 3.2.7 4.9.9.6.1.9-.1 1.2-.5 1-1.4 2.3-2.6 3.8-3.6 1.2-.8 2.3-1.7 3.7-2.3 1.2-.5 2.4-1.1 3.7-1.5 1.1-.4 2.3-.6 3.4-.9 1.2-.3 2.4-.5 3.6-.6 1.4-.1 2.8-.1 4.1-.3.9-.1 1.8-.4 2.8-.6 1.5-.4 2.9-1 4.3-1.8.9-.5 1.3-1.3 1.6-2.2.3-1.1.5-2.2.6-3.4.1-1.6 0-3.3.1-4.9v-23.6c0-.9-.1-1.8-.1-2.7-.1-1.4-.4-2.7-.6-4-.1-.5-.3-.9-.5-1.3 0-.1-.1-.2-.2-.2-.5 0-.9-.3-1.4-.4-.9-.1-1.6-.6-2.4-.9-.9-.4-1.7-.9-2.5-1.5-2.1-1.6-3.7-3.6-4.9-6-1.3-2.7-1.8-5.6-1.4-8.5.2-1.3.4-2.5.9-3.7.8-2.1 1.9-4 3.6-5.5.3.5 1.1.4 1.2 1.2 0 .2.3.1.4 0 .1-.1.1-.1.1-.2.1-.5.7-.4.8-.8.1-.4-.7-.3-.7-.8 0-.3-.2-.5-.3-.7 1.1-1 2.2-1.7 3.6-2.2.2-.1.4-.2.5-.3 1.2-.5 2.4-.8 3.7-.9.7-.1 1.4-.2 2.1-.2 2.4.1 4.6.5 6.7 1.6 2.9 1.5 5.3 3.6 6.9 6.4.6 1.1 1.1 2.2 1.4 3.4.3 1.1.6 2.3.6 3.5.1 1.9-.1 3.9-.8 5.7-.3 1-.7 1.9-1.2 2.8-1.2 2.1-2.6 3.9-4.6 5.3-.7.5-1.4.9-2.2 1.4-.3.2-.5.4-.7.8-.8 2.5-1.1 5.1-1.2 7.7 0 1.1-.1 2.1-.1 3.2 0 .8-.1 1.6-.1 2.4 0 1 0 2.1-.1 3.1-.1.6-.1 1.3 0 2v4.4c0 1 .1 2 .1 3 0 .8 0 1.7.1 2.6.1.7 0 1.3.1 2 .1 1.5.4 3.1.6 4.6.2 1.3.7 2.5 1 3.8.2.8.5.9 1.4.9.8 0 1.6 0 2.4.1 2.3.3 4.6.7 6.8 1.5 1.8.7 3.6 1.4 5.2 2.5.4.3.8.6 1.1.9-.3.2-.7.3-.7.8 0 .3-.3.4-.5.4-.3 0-.5-.1-.6-.4-.1-.2-.1-.5-.3-.4-.2 0-.3.2-.3.4-.1.5-.8.3-.8.8 0 .4.7.2.8.7.1.6 1 .6 1.1 1.2 0 .1.2.1.3 0 .6-.9 1.6-1.4 2.2-2.3 1.6 1.6 2.6 3.5 3.3 5.7.2.6.3 1.3.4 2 .2 1.2.4 2.5.6 3.7.1.4.3.8.4 1.2.4 1.6 1.2 3 1.9 4.4 1.3 2.3 3 4.3 4.9 6.1 1.5 1.4 2.8 3 3.8 4.9.5.9 1 1.7 1.3 2.7.4 1.2.9 2.4 1.2 3.7.3 1.5.5 2.9.5 4.4 0 1 0 2-.2 3-.1.8-.2 1.5-.3 2.3-.1.8-.3 1.5-.5 2.2s-.4 1.4-.6 2c-.8 1.8-1.6 3.6-2.8 5.1-1.1 1.4-2.2 2.7-3.6 3.8-1.9 1.5-3.8 3-6 3.9-.7.3-1.4.8-2.1 1-1.2.3-2.2 1-3.5 1.1-.5 0-.8.5-.8.9-.1 1.2-.2 2.4-.2 3.6.1 1.7.3 3.3.8 5 .5 1.8 1.3 3.5 2.1 5.1.4.7.9 1.4 1.3 2 .7 1 1.4 1.9 2 2.9.2.3.4.3.8.2 1.3-.4 2.6-.5 4-.6 1.7 0 3.4.3 5 .9 1.2.4 2.2 1.1 3.3 1.9.9.6 1.6 1.4 2.3 2.2 1 1.3 1.9 2.7 2.4 4.3.3 1.1.6 2.2.7 3.4.2 1.6.1 2.9-.3 4.2zm2.7-90.4c-1.1-.8-1.8-1.8-2.3-3.1-.3-.9-.6-1.8-.6-2.7 0-1 .2-1.9.6-2.9.4-.9.9-1.8 1.6-2.5 1.3-1.3 2.8-1.9 4.6-2 1.9-.1 3.8-.4 5.7-.9 1.5-.5 2.9-1.2 4.1-2.2 1.2-1.1 1.9-2.4 2.2-4 .2-1.5-.2-2.8-.5-4.3-.2-1.5 0-2.9.7-4.2.5-.9 1-1.6 1.8-2.3.6-.5 1.3-.9 2-1.2 3.5-1.4 6.3-3.5 8.6-6.5.4-.5.7-1.1 1.1-1.6.9-1.5 0-3.7-1.9-4.1-1.1-.3-2 0-2.7.8-.9.9-1.6 1.9-2.4 2.8-1.1 1.3-2.6 2.2-4.1 2.9l-1.5.6c-1.2.3-2.2 0-3.1-.8-.7-.6-.8-1.5-.6-2.4l.3-2.7c0-1-.1-2-.1-3.1 0-.7-.1-1.3-.2-2-.2-1.4-.1-2.8 0-4.2.1-1.1.5-2.2 1-3.2.6-1.2 1.4-2.3 2.3-3.3 1.1-1.1 2.5-1.9 4-2.3 1.4-.4 2.7-.8 3.9-1.5.8-.5 1.5-1.2 2.3-1.8 1.2-1.1 2.3-2.4 3.2-3.8.3-.4.4-.9.6-1.3 1-2.2 1.3-4.5.7-6.9-.5-2-1.5-3.7-2.9-5.1-.6-.7-1.4-1.2-2.1-1.8a9.64 9.64 0 01-2.9-4.2c-.4-1.4-.5-2.8-.2-4.2.5-2.3 1.7-4.1 3.6-5.5.7-.5 1.5-.6 2.2-1.1.1-.1.4 0 .5-.1.2-.1.3 0 .4.1.2.2.4.3.5 0 .1-.2.4-.3.6-.3.5-.1.8.7 1.1.5.4-.2.6-.4 1.1-.4.4 0 .6.7 1 .2.6 0 1.1.4 1.6.7 2.2 1.3 3.6 3.1 4.2 5.5.1.5.2 1 .2 1.6 0 .9.1 1.7.1 2.6.1 2.3.5 4.5 1.5 6.5.8 1.5 1.8 2.8 3.1 3.9 1.1 1 2.4 1.7 3.8 2.2 2.4.9 4.8 1.1 7.3.7 2.5-.3 4.7-1.3 6.7-2.7 1.4-.9 2.6-2 3.8-3.1 1.1-1 3.1-.5 3.4 1.1.3 1.8.7 3.5 1 5.3.1.5.3.9.4 1.3.6 2.4 1.9 4.3 3.8 5.9.8.7 1.5 1.4 2.3 2.1 1.3 1 .7 2.9-.7 3.5-1.6.8-3.3 1.1-5.1 1-1.6-.1-3.1-.3-4.6-.7-.5-.1-1 0-1.4.2-1.6.8-2.5 2.4-1.5 4.2.3.5.7.9 1.3 1.1 2 .6 4 1 6 1 1 0 2.1-.1 3.1-.3 2.5-.5 4.8-1.5 6.8-3.1 1.9-1.6 2.9-3.6 2.8-6.1 0-1-.2-2.1-.5-3.1-.4-1.7-.5-3.4.2-5.1.7-1.5 1.7-2.7 3.1-3.5 1.1-.7 2.3-1 3.6-1.1 1.2-.1 2.4.1 3.5.7 1.9 1 3.3 2.5 3.9 4.6.5 1.6.6 3.3-.1 4.9-.6 1.5-1.5 2.8-3.1 3.6-1 .5-2 1.1-2.9 1.8-1 .8-1.7 1.7-2.3 2.8-.8 1.6-.9 3.4-.8 5.1 0 1.6.1 3.2.3 4.8.2 1.1.5 2.2.8 3.3.5 1.8.7 3.6.8 5.4.2 2.7 0 5.3-.2 8 0 .1-.1.3-.1.4-.2-.1-.2-.4-.4-.4-.5.6-1.1 1.2-1.8 1.7-.2.2-.3.3 0 .5s.5.4.7.7.4.3.5-.1c.1-.4.3-.7.8-.4 0 1.9.4 3.7 1.1 5.5-.4.3-.7.2-.9-.3-.2-.5-.4-.4-.6 0-.1.4-.7.4-.8.7 0 .4.6.3.7.7.2.7.4.5.7 0 .1-.3.4-.4.6-.4.3 0 .5.1.6.4.1.4.3.5.7.5.6.7 1.2 1.5 1.9 2.2.4.5.6 1 .6 1.6.1.7-.3 1.3-.8 1.7-.4.3-.9.5-1.4.6-1.8 0-3.5.4-5.2.9-2.7.8-5 2.3-6.6 4.7-.8 1.1-1.3 2.4-1.5 3.8-.2 1 .1 2.1.6 3.1.8 1.6 2 2.7 3.7 3.4.6.2 1.2.2 1.8.4.6.2 1.2.3 1.8.6 1.4.6 2.4 1.6 3 3 .8 1.7.9 3.4.5 5.2-.6 2.5-2 4.4-4.4 5.4-1.4.6-2.9.8-4.4.4-1.1-.3-2.1-.6-3-1.3-1.3-1-2.3-2.1-2.7-3.7-.4-1.3-.3-2.7-.2-4.1.2-2 .2-4.1-.7-6-.7-1.5-2-2.5-3.6-2.8-1.2-.2-2.4-.4-3.6-.5-1-.1-1.9-.1-2.9 0-1.1.1-2.2.2-3.3.4-2.1.4-4.1 1-6.1 1.9-.4.2-.9.2-1.3.4-.2.1-.5.1-.8 0-1.5-.4-2.4-1.4-2.8-2.8-.2-.8-.1-1.7.5-2.4.9-1.1 2-1.9 3.2-2.5 1.1-.6 2.2-1.2 3.3-1.7 1.2-.6 2.1-2.9.6-4.4-.3-.3-.6-.5-.8-.7.3-.5.3-1.1 1-1.2.2 0 .2-.3 0-.4l-.1-.1c-.5-.1-.4-.6-.7-.8-.6-.3-.3.6-.7.7-.4.1-.6.3-.7.7-.1.2-.3.2-.4.3-.3.1-.2.3-.1.5-1.9.6-3.7 1.5-5.5 2.5-.9.5-1.7 1.2-2.5 1.9-.6.5-1.1 1.2-1.7 1.7-.5-.1-1-.1-1.2-.8-.1-.3-.4-.3-.5.1-.1.4-.3.5-.6.6-.2.1-.4.3-.2.4.6.2.7.7.9 1 .1.1.3.1.4.3-.6 1-1.1 2.1-1.6 3.1-.6 1.5-.9 3-1.3 4.5-.4 1.3-.5 2.6-1.1 3.8-.1.1 0 .3-.1.5-.3 1.4-1.2 2.2-2.6 2.2-1.7 0-2.6-.6-3-2.3-.1-.5-.4-1-.5-1.5-.3-1.5-.9-2.9-1.3-4.4-.3-1-.9-2-1.3-2.9-.7-1.4-1.8-2.6-2.9-3.6-.8-.7-1.7-1.2-2.6-1.5-2.6-1-5.2-1-7.9-.4-2.2.5-3.8 1.8-5.1 3.5-.9 1.2-1.7 2.5-2.2 4-.8 2.2-2.3 3.7-4.5 4.4-2.4.9-4.8.5-7-1.1zm99.9 79.9c-3.5.3-6.6-1.6-8.1-4.7l-4.1.4-3.1 1.5c-.7.3-1.2 1-1.3 1.8-.3 2.1-.8 4.1-1.6 6.1-.3.7-.2 1.4.1 2l1.1 2 3.1 2.1c1.6-.6 3.5-.5 5.1.6 2.6 1.8 3.3 5.4 1.3 8-1.7 2.2-4.8 2.8-7.2 1.4-1.5-.9-2.4-2.4-2.7-4l-3.4-2.3-2.1-.3c-.7-.1-1.5.2-2 .7-1.8 1.7-3.9 3.2-6.1 4.4-.7.4-1.2 1.2-1.3 2l-.3 4.4 1.4 5.4c2.3.6 4.2 2.5 4.8 4.9.9 3.8-1.4 7.6-5.2 8.4-3.4.8-6.9-1.2-8-4.6-.8-2.6-.1-5.3 1.7-7.1l-1.4-5.4-2.1-3.4c-.6-.9-1.6-1.4-2.6-1.4-1.8 0-3.6-.2-5.4-.5-1-.2-2.1.1-2.8.9l-2.8 2.9-3.1 6.4c.7 1.5.8 3.3 0 4.9-1.4 2.9-4.9 4-7.7 2.4-2.4-1.4-3.5-4.4-2.4-6.9.7-1.7 2.2-2.9 3.9-3.3l3.1-6.5.6-4.3c.1-.8-.2-1.6-.8-2.1-2.5-2-4.6-4.4-6.3-7.2-.4-.7-1.2-1.1-2-1.1h-4.3l-4.8 1.5c-.3 3-2.4 5.6-5.4 6.5-4.1 1.3-8.4-1-9.7-5-1.3-4 .9-8.4 4.9-9.8 2.8-.9 5.8-.2 7.8 1.7l5-1.6 3.7-2.6c.5-.4.8-1 .8-1.7-.1-.7-.1-1.5-.1-2.2 0-4.1.9-8 2.5-11.5.2-.5.2-1.1 0-1.6l-1.1-2.2-3-2.2c-1.7.5-3.5.3-5-.8-2.5-1.9-3-5.6-.9-8 1.8-2.1 5-2.5 7.3-1 1.5 1 2.3 2.5 2.4 4.1l3.3 2.5 3.3.6c2.4-2.2 5.2-4 8.3-5.3l.8-4.7-1-4.9c-2.9-.7-5.3-3-5.9-5.9-.9-4.2 2-8.3 6.4-9.1s8.8 1.9 9.7 6.1c.7 3.1-.8 6.2-3.4 7.9l.9 4.6 2.3 3.6c.1.2.4.4.7.4 5.2 0 10.1 1.4 14.2 4 .2.1.5.2.8 0l3.6-1.6 4.2-4.5c-.2-1.6.2-3.3 1.4-4.6 2.2-2.3 5.9-2.4 8.1-.1 2 2 2 5.3.2 7.4-1.2 1.4-2.9 2-4.6 1.9l-4.2 4.5-1.3 3.6c-.1.3-.1.5.1.8 1.6 2.2 2.9 4.8 3.8 7.4.2.7.8 1.3 1.6 1.5l3.4.9 4.4-.4c1.1-3.1 3.8-5.5 7.1-5.8 4.5-.5 8.5 3.1 8.9 7.9.4 4.5-3 8.8-7.5 9.2zm228.9 134.3c-.2.6-.3 1.3-.6 1.9-1 2.4-2.5 4.4-4.7 5.9-1.8 1.3-3.9 2.2-6.1 2.5-.7.1-1.5.1-2.2.1-1.3 0-2.6-.3-3.9-.7-.7-.2-1.4-.6-2.1-1-.9-.5-1.7-1-2.5-1.7-1.3-1.1-2.3-2.4-3.1-3.9-.3-.6-.6-1.1-.8-1.7-.7-2.1-1-4.2-.6-6.4.3-1.8.8-3.4 1.7-4.9.6-.9 1.2-1.8 2-2.6.9-.9 1-1 .4-2.1-.7-1.2-1.2-2.4-1.9-3.6-1.8-2.9-3.7-5.7-6.8-7.5-.5-.3-.9-.5-1.4-.8-.3-.2-.6-.1-.8.2-.7.8-1.6 1.6-2.5 2.2-1.8 1.3-3.8 2.2-5.9 2.8-1.7.5-3.4.8-5.2.9-2.4.1-4.8 0-7.2-.5-1.2-.3-2.3-.6-3.4-1-2.8-1-5.2-2.4-7.4-4.3-.8-.7-1.5-1.4-2.2-2.2-.3-.3-.5-.4-.9-.2-.8.3-1.6.6-2.4 1-.9.4-1.7 1-2.5 1.5-1.4 1-2.7 2.1-3.8 3.3-.9 1-1.8 2.1-2.6 3.3-1.1 1.6-2 3.3-2.9 5-.4.7-.7 1.5-.9 2.2-.1.3-.2.6-.7.5.3.8.9 1.2 1.2 1.9.4.8.6 1.5.8 2.4.3 1 .3 1.9.3 2.9 0 1.2-.2 2.5-.6 3.7-.5 1.7-1.4 3-2.7 4.2-.8.8-1.8 1.3-2.8 1.7-.6.2-1.2.4-1.8.5-1 .2-2.1.3-3.2.3-.8 0-1.5-.2-2.3-.3-1.1-.2-2.1-.6-2.9-1.3-2.2-1.7-3.6-4.1-4.2-6.8-.2-1-.5-1.9-.4-2.9.1-1.5.5-3 1.2-4.4.7-1.3 1.5-2.4 2.6-3.3 1.3-1.1 2.8-1.8 4.6-2.1 1.4-.2 2.8-.3 4.1 0 .5.1.8 0 1.1-.5 1.7-2.4 3.3-4.8 4.8-7.3 1.4-2.4 2.7-4.9 3.7-7.5.5-1.1.7-2.3 1.2-3.4.2-.4.1-.7-.3-.9-.9-.5-1.8-1.1-2.7-1.8-1.3-1-2.5-2.1-3.4-3.4-.9-1.2-1.8-2.4-2.4-3.8-.5-1.3-1.1-2.5-1.4-3.9-.3-1.1-.5-2.3-.7-3.4-.1-1-.3-2-.2-3 0-.7.1-1.4.1-2.2.1-1.3.3-2.6.6-3.9.2-.8.4-1.5.6-2.3.6-1.6 1.2-3.1 2-4.6.8-1.6 1.6-3.2 2.1-5 .2-.8.3-1.5.4-2.3.2-.9-.1-1.7-.6-2.4-.1-.1-.1-.2-.2-.3.4-.1.8-.1.9-.7.1-.5.9-.4 1.1.1.3.7.5.6.7 0 .1-.4.8-.3.7-.7 0-.4-.6-.3-.8-.7-.2-.6-1-.6-1.1-1.2 0-.1-.2-.1-.3 0-.1.7-1 .7-1.2 1.4-.1.3-.6.4-.9.6-1.1-1.5-2.2-3-3.4-4.4-1.5-1.7-3.2-3.2-5-4.5-1-.8-2.1-1.5-3.1-2.2-.8-.5-1.8-.9-2.6-1.4-1.3-.8-2.7-1.3-4.1-1.9-.3-.1-.5-.5-.9-.4s-.6.4-.8.7c-1 1.1-2.3 1.9-3.6 2.6-1.4.7-3 1.2-4.6 1.3s-3.1 0-4.6-.5c-1.3-.4-2.6-.9-3.6-1.8.2-.5.3-1.1 1-1.2.1 0 .2-.2 0-.4-.1-.1-.1-.1-.2-.1-.4-.1-.4-.6-.7-.8-.6-.3-.3.6-.7.6-.4.1-.6.3-.9.6-1.2-1.1-2.2-2.3-2.8-3.8-.5-1.1-1-2.3-1.1-3.6-.1-.9-.2-1.8-.1-2.6.1-1.3.3-2.6.9-3.9.4-.9.8-1.8 1.4-2.6 1.5-2.2 3.5-3.8 6-4.8 2.7-1.1 5.5-1.2 8.2-.3 3.2 1 5.7 2.9 7.4 5.8.4.7.7 1.4 1 2.1-.4.3-.5-.1-.7-.4-.2-.3-.3-.3-.5 0 0 0 0 .1-.1.1-.6.9-.6.9-.4 1 .5.1.4.9 1 1 .2 0 .3.2.3.3.2.7.5.4.8.1.3 1.1.2 2.2.2 3.3 0 .1 0 .2-.1.3-.2.7.1 1.2.7 1.6 1.1.7 2.1 1.6 3.3 2.3.8.5 1.7.9 2.5 1.4 1.5.9 3.2 1.5 4.8 2.2 1.6.6 3.2 1.2 4.9 1.6 1.6.4 3.2.7 4.9.9.6.1.9-.1 1.2-.5 1-1.4 2.3-2.6 3.8-3.6 1.2-.8 2.3-1.7 3.7-2.3 1.2-.5 2.4-1.1 3.7-1.5 1.1-.4 2.3-.6 3.4-.9 1.2-.3 2.4-.5 3.6-.6 1.4-.1 2.8-.1 4.1-.3.9-.1 1.8-.4 2.8-.6 1.5-.4 2.9-1 4.3-1.8.9-.5 1.3-1.3 1.6-2.2.3-1.1.5-2.2.6-3.4.1-1.6 0-3.3.1-4.9v-23.6c0-.9-.1-1.8-.1-2.7-.1-1.4-.4-2.7-.6-4-.1-.5-.3-.9-.5-1.3 0-.1-.1-.2-.2-.2-.5 0-.9-.3-1.4-.4-.9-.1-1.6-.6-2.4-.9-.9-.4-1.7-.9-2.5-1.5-2.1-1.6-3.7-3.6-4.9-6-1.3-2.7-1.8-5.6-1.4-8.5.2-1.3.4-2.5.9-3.7.8-2.1 1.9-4 3.6-5.5.3.5 1.1.4 1.2 1.2 0 .2.3.1.4 0s.1-.1.1-.2c.1-.5.7-.4.8-.8.1-.4-.7-.3-.7-.8 0-.3-.2-.5-.3-.7 1.1-1 2.2-1.7 3.6-2.2.2-.1.4-.2.5-.3 1.2-.5 2.4-.8 3.7-.9.7-.1 1.4-.2 2.1-.2 2.4.1 4.6.5 6.7 1.6 2.9 1.5 5.3 3.6 6.9 6.4.6 1.1 1.1 2.2 1.4 3.4.3 1.1.6 2.3.6 3.5.1 1.9-.1 3.9-.8 5.7-.3 1-.7 1.9-1.2 2.8-1.2 2.1-2.6 3.9-4.6 5.3-.7.5-1.4.9-2.2 1.4-.3.2-.5.4-.7.8-.8 2.5-1.1 5.1-1.2 7.7 0 1.1-.1 2.1-.1 3.2 0 .8-.1 1.6-.1 2.4 0 1 0 2.1-.1 3.1-.1.6-.1 1.3 0 2v4.4c0 1 .1 2 .1 3 0 .8 0 1.7.1 2.6.1.7 0 1.3.1 2 .1 1.5.4 3.1.6 4.6.2 1.3.7 2.5 1 3.8.2.8.5.9 1.4.9.8 0 1.6 0 2.4.1 2.3.3 4.6.7 6.8 1.5 1.8.7 3.6 1.4 5.2 2.5.4.3.8.6 1.1.9-.3.2-.7.3-.7.8 0 .3-.3.4-.5.4-.3 0-.5-.1-.6-.4-.1-.2-.1-.5-.3-.4-.2 0-.3.2-.3.4-.1.5-.8.3-.8.8 0 .4.7.2.8.7.1.6 1 .6 1.1 1.2 0 .1.2.1.3 0 .6-.9 1.6-1.4 2.2-2.3 1.6 1.6 2.6 3.5 3.3 5.7.2.6.3 1.3.4 2 .2 1.2.4 2.5.6 3.7.1.4.3.8.4 1.2.4 1.6 1.2 3 1.9 4.4 1.3 2.3 3 4.3 4.9 6.1 1.5 1.4 2.8 3 3.8 4.9.5.9 1 1.7 1.3 2.7.4 1.2.9 2.4 1.2 3.7.3 1.5.5 2.9.5 4.4 0 1 0 2-.2 3-.1.8-.2 1.5-.3 2.3-.1.8-.3 1.5-.5 2.2s-.4 1.4-.6 2c-.8 1.8-1.6 3.6-2.8 5.1-1.1 1.4-2.2 2.7-3.6 3.8-1.9 1.5-3.8 3-6 3.9-.7.3-1.4.8-2.1 1-1.2.3-2.2 1-3.5 1.1-.5 0-.8.5-.8.9-.1 1.2-.2 2.4-.2 3.6.1 1.7.3 3.3.8 5 .5 1.8 1.3 3.5 2.1 5.1.4.7.9 1.4 1.3 2 .7 1 1.4 1.9 2 2.9.2.3.4.3.8.2 1.3-.4 2.6-.5 4-.6 1.7 0 3.4.3 5 .9 1.2.4 2.2 1.1 3.3 1.9.9.6 1.6 1.4 2.3 2.2 1 1.3 1.9 2.7 2.4 4.3.3 1.1.6 2.2.7 3.4.1 1.6 0 2.9-.3 4.2zm2.6-90.4c-1.1-.8-1.8-1.8-2.3-3.1-.3-.9-.6-1.8-.6-2.7 0-1 .2-1.9.6-2.9.4-.9.9-1.8 1.6-2.5 1.3-1.3 2.8-1.9 4.6-2 1.9-.1 3.8-.4 5.7-.9 1.5-.5 2.9-1.2 4.1-2.2 1.2-1.1 1.9-2.4 2.2-4 .2-1.5-.2-2.8-.5-4.3-.2-1.5 0-2.9.7-4.2.5-.9 1-1.6 1.8-2.3.6-.5 1.3-.9 2-1.2 3.5-1.4 6.3-3.5 8.6-6.5.4-.5.7-1.1 1.1-1.6.9-1.5 0-3.7-1.9-4.1-1.1-.3-2 0-2.7.8-.9.9-1.6 1.9-2.4 2.8-1.1 1.3-2.6 2.2-4.1 2.9l-1.5.6c-1.2.3-2.2 0-3.1-.8-.7-.6-.8-1.5-.6-2.4l.3-2.7c0-1-.1-2-.1-3.1 0-.7-.1-1.3-.2-2-.2-1.4-.1-2.8 0-4.2.1-1.1.5-2.2 1-3.2.6-1.2 1.4-2.3 2.3-3.3 1.1-1.1 2.5-1.9 4-2.3 1.4-.4 2.7-.8 3.9-1.5.8-.5 1.5-1.2 2.3-1.8 1.2-1.1 2.3-2.4 3.2-3.8.3-.4.4-.9.6-1.3 1-2.2 1.3-4.5.7-6.9-.5-2-1.5-3.7-2.9-5.1-.6-.7-1.4-1.2-2.1-1.8a9.64 9.64 0 01-2.9-4.2c-.4-1.4-.5-2.8-.2-4.2.5-2.3 1.7-4.1 3.6-5.5.7-.5 1.5-.6 2.2-1.1.1-.1.4 0 .5-.1.2-.1.3 0 .4.1.2.2.4.3.5 0 .1-.2.4-.3.6-.3.5-.1.8.7 1.1.5.4-.2.6-.4 1.1-.4.4 0 .6.7 1 .2.6 0 1.1.4 1.6.7 2.2 1.3 3.6 3.1 4.2 5.5.1.5.2 1 .2 1.6 0 .9.1 1.7.1 2.6.1 2.3.5 4.5 1.5 6.5.8 1.5 1.8 2.8 3.1 3.9 1.1 1 2.4 1.7 3.8 2.2 2.4.9 4.8 1.1 7.3.7 2.5-.3 4.7-1.3 6.7-2.7 1.4-.9 2.6-2 3.8-3.1 1.1-1 3.1-.5 3.4 1.1.3 1.8.7 3.5 1 5.3.1.5.3.9.4 1.3.6 2.4 1.9 4.3 3.8 5.9.8.7 1.5 1.4 2.3 2.1 1.3 1 .7 2.9-.7 3.5-1.6.8-3.3 1.1-5.1 1-1.6-.1-3.1-.3-4.6-.7-.5-.1-1 0-1.4.2-1.6.8-2.5 2.4-1.5 4.2.3.5.7.9 1.3 1.1 2 .6 4 1 6 1 1 0 2.1-.1 3.1-.3 2.5-.5 4.8-1.5 6.8-3.1 1.9-1.6 2.9-3.6 2.8-6.1 0-1-.2-2.1-.5-3.1-.4-1.7-.5-3.4.2-5.1.7-1.5 1.7-2.7 3.1-3.5 1.1-.7 2.3-1 3.6-1.1 1.2-.1 2.4.1 3.5.7 1.9 1 3.3 2.5 3.9 4.6.5 1.6.6 3.3-.1 4.9-.6 1.5-1.5 2.8-3.1 3.6-1 .5-2 1.1-2.9 1.8-1 .8-1.7 1.7-2.3 2.8-.8 1.6-.9 3.4-.8 5.1 0 1.6.1 3.2.3 4.8.2 1.1.5 2.2.8 3.3.5 1.8.7 3.6.8 5.4.2 2.7 0 5.3-.2 8 0 .1-.1.3-.1.4-.2-.1-.2-.4-.4-.4-.5.6-1.1 1.2-1.8 1.7-.2.2-.3.3 0 .5s.5.4.7.7.4.3.5-.1c.1-.4.3-.7.8-.4 0 1.9.4 3.7 1.1 5.5-.4.3-.7.2-.9-.3-.2-.5-.4-.4-.6 0-.1.4-.7.4-.8.7 0 .4.6.3.7.7.2.7.4.5.7 0 .1-.3.4-.4.6-.4.3 0 .5.1.6.4.1.4.3.5.7.5.6.7 1.2 1.5 1.9 2.2.4.5.6 1 .6 1.6.1.7-.3 1.3-.8 1.7-.4.3-.9.5-1.4.6-1.8 0-3.5.4-5.2.9-2.7.8-5 2.3-6.6 4.7-.8 1.1-1.3 2.4-1.5 3.8-.2 1 .1 2.1.6 3.1.8 1.6 2 2.7 3.7 3.4.6.2 1.2.2 1.8.4.6.2 1.2.3 1.8.6 1.4.6 2.4 1.6 3 3 .8 1.7.9 3.4.5 5.2-.6 2.5-2 4.4-4.4 5.4-1.4.6-2.9.8-4.4.4-1.1-.3-2.1-.6-3-1.3-1.3-1-2.3-2.1-2.7-3.7-.4-1.3-.3-2.7-.2-4.1.2-2 .2-4.1-.7-6-.7-1.5-2-2.5-3.6-2.8-1.2-.2-2.4-.4-3.6-.5-1-.1-1.9-.1-2.9 0-1.1.1-2.2.2-3.3.4-2.1.4-4.1 1-6.1 1.9-.4.2-.9.2-1.3.4-.2.1-.5.1-.8 0-1.5-.4-2.4-1.4-2.8-2.8-.2-.8-.1-1.7.5-2.4.9-1.1 2-1.9 3.2-2.5 1.1-.6 2.2-1.2 3.3-1.7 1.2-.6 2.1-2.9.6-4.4-.3-.3-.6-.5-.8-.7.3-.5.3-1.1 1-1.2.2 0 .2-.3 0-.4l-.1-.1c-.5-.1-.4-.6-.7-.8-.6-.3-.3.6-.7.7-.4.1-.6.3-.7.7-.1.2-.3.2-.4.3-.3.1-.2.3-.1.5-1.9.6-3.7 1.5-5.5 2.5-.9.5-1.7 1.2-2.5 1.9-.6.5-1.1 1.2-1.7 1.7-.5-.1-1-.1-1.2-.8-.1-.3-.4-.3-.5.1-.1.4-.3.5-.6.6-.2.1-.4.3-.2.4.6.2.7.7.9 1 .1.1.3.1.4.3-.6 1-1.1 2.1-1.6 3.1-.6 1.5-.9 3-1.3 4.5-.4 1.3-.5 2.6-1.1 3.8-.1.1 0 .3-.1.5-.3 1.4-1.2 2.2-2.6 2.2-1.7 0-2.6-.6-3-2.3-.1-.5-.4-1-.5-1.5-.3-1.5-.9-2.9-1.3-4.4-.3-1-.9-2-1.3-2.9-.7-1.4-1.8-2.6-2.9-3.6-.8-.7-1.7-1.2-2.6-1.5-2.6-1-5.2-1-7.9-.4-2.2.5-3.8 1.8-5.1 3.5-.9 1.2-1.7 2.5-2.2 4-.8 2.2-2.3 3.7-4.5 4.4-2.4.9-4.8.6-7-1.1zm99.9 79.9c-3.5.3-6.6-1.6-8.1-4.7l-4.1.4-3.1 1.5c-.7.3-1.2 1-1.3 1.8-.3 2.1-.8 4.1-1.6 6.1-.3.7-.2 1.4.1 2l1.1 2 3.1 2.1c1.6-.6 3.5-.5 5.1.6 2.6 1.8 3.3 5.4 1.3 8-1.7 2.2-4.8 2.8-7.2 1.4-1.5-.9-2.4-2.4-2.7-4l-3.4-2.3-2.1-.3c-.7-.1-1.5.2-2 .7-1.8 1.7-3.9 3.2-6.1 4.4-.7.4-1.2 1.2-1.3 2l-.3 4.4 1.4 5.4c2.3.6 4.2 2.5 4.8 4.9.9 3.8-1.4 7.6-5.2 8.4-3.4.8-6.9-1.2-8-4.6-.8-2.6-.1-5.3 1.7-7.1l-1.4-5.4-2.1-3.4c-.6-.9-1.6-1.4-2.6-1.4-1.8 0-3.6-.2-5.4-.5-1-.2-2.1.1-2.8.9l-2.8 2.9-3.1 6.4c.7 1.5.8 3.3 0 4.9-1.4 2.9-4.9 4-7.7 2.4-2.4-1.4-3.5-4.4-2.4-6.9.7-1.7 2.2-2.9 3.9-3.3l3.1-6.5.6-4.3c.1-.8-.2-1.6-.8-2.1-2.5-2-4.6-4.4-6.3-7.2-.4-.7-1.2-1.1-2-1.1h-4.3l-4.8 1.5c-.3 3-2.4 5.6-5.4 6.5-4.1 1.3-8.4-1-9.7-5-1.3-4 .9-8.4 4.9-9.8 2.8-.9 5.8-.2 7.8 1.7l5-1.6 3.7-2.6c.5-.4.8-1 .8-1.7-.1-.7-.1-1.5-.1-2.2 0-4.1.9-8 2.5-11.5.2-.5.2-1.1 0-1.6l-1.1-2.2-3-2.2c-1.7.5-3.5.3-5-.8-2.5-1.9-3-5.6-.9-8 1.8-2.1 5-2.5 7.3-1 1.5 1 2.3 2.5 2.4 4.1l3.3 2.5 3.3.6c2.4-2.2 5.2-4 8.3-5.3l.8-4.7-1-4.9c-2.9-.7-5.3-3-5.9-5.9-.9-4.2 2-8.3 6.4-9.1s8.8 1.9 9.7 6.1c.7 3.1-.8 6.2-3.4 7.9l.9 4.6 2.3 3.6c.1.2.4.4.7.4 5.2 0 10.1 1.4 14.2 4 .2.1.5.2.8 0l3.6-1.6 4.2-4.5c-.2-1.6.2-3.3 1.4-4.6 2.2-2.3 5.9-2.4 8.1-.1 2 2 2 5.3.2 7.4-1.2 1.4-2.9 2-4.6 1.9l-4.2 4.5-1.3 3.6c-.1.3-.1.5.1.8 1.6 2.2 2.9 4.8 3.8 7.4.2.7.8 1.3 1.6 1.5l3.4.9 4.4-.4c1.1-3.1 3.8-5.5 7.1-5.8 4.5-.5 8.5 3.1 8.9 7.9.4 4.5-2.9 8.8-7.5 9.2zm16.4-515.6c-.2.6-.3 1.3-.6 1.9-1 2.4-2.5 4.4-4.7 5.9-1.8 1.3-3.9 2.2-6.1 2.5-.7.1-1.5.1-2.2.1-1.3 0-2.6-.3-3.9-.7-.7-.2-1.4-.6-2.1-1-.9-.5-1.7-1-2.5-1.7-1.3-1.1-2.3-2.4-3.1-3.9-.3-.6-.6-1.1-.8-1.7-.7-2.1-1-4.2-.6-6.4.3-1.8.8-3.4 1.7-4.9.6-.9 1.2-1.8 2-2.6.9-.9 1-1 .4-2.1-.7-1.2-1.2-2.4-1.9-3.6-1.8-2.9-3.7-5.7-6.8-7.5-.5-.3-.9-.5-1.4-.8-.3-.2-.6-.1-.8.2-.7.8-1.6 1.6-2.5 2.2-1.8 1.3-3.8 2.2-5.9 2.8-1.7.5-3.4.8-5.2.9-2.4.1-4.8 0-7.2-.5-1.2-.3-2.3-.6-3.4-1-2.8-1-5.2-2.4-7.4-4.3-.8-.7-1.5-1.4-2.2-2.2-.3-.3-.5-.4-.9-.2-.8.3-1.6.6-2.4 1-.9.4-1.7 1-2.5 1.5-1.4 1-2.7 2.1-3.8 3.3-.9 1-1.8 2.1-2.6 3.3-1.1 1.6-2 3.3-2.9 5-.4.7-.7 1.5-.9 2.2-.1.3-.2.6-.7.5.3.8.9 1.2 1.2 1.9.4.8.6 1.5.8 2.4.3 1 .3 1.9.3 2.9 0 1.2-.2 2.5-.6 3.7-.5 1.7-1.4 3-2.7 4.2-.8.8-1.8 1.3-2.8 1.7-.6.2-1.2.4-1.8.5-1 .2-2.1.3-3.2.3-.8 0-1.5-.2-2.3-.3-1.1-.2-2.1-.6-2.9-1.3-2.2-1.7-3.6-4.1-4.2-6.8-.2-1-.5-1.9-.4-2.9.1-1.5.5-3 1.2-4.4.7-1.3 1.5-2.4 2.6-3.3 1.3-1.1 2.8-1.8 4.6-2.1 1.4-.2 2.8-.3 4.1 0 .5.1.8 0 1.1-.5 1.7-2.4 3.3-4.8 4.8-7.3 1.4-2.4 2.7-4.9 3.7-7.5.5-1.1.7-2.3 1.2-3.4.2-.4.1-.7-.3-.9-.9-.5-1.8-1.1-2.7-1.8-1.3-1-2.5-2.1-3.4-3.4-.9-1.2-1.8-2.4-2.4-3.8-.5-1.3-1.1-2.5-1.4-3.9-.3-1.1-.5-2.3-.7-3.4-.1-1-.3-2-.2-3 0-.7.1-1.4.1-2.2.1-1.3.3-2.6.6-3.9.2-.8.4-1.5.6-2.3.6-1.6 1.2-3.1 2-4.6.8-1.6 1.6-3.2 2.1-5 .2-.8.3-1.5.4-2.3.2-.9-.1-1.7-.6-2.4-.1-.1-.1-.2-.2-.3.4-.1.8-.1.9-.7.1-.5.9-.4 1.1.1.3.7.5.6.7 0 .1-.4.8-.3.7-.7 0-.4-.6-.3-.8-.7-.2-.6-1-.6-1.1-1.2 0-.1-.2-.1-.3 0-.1.7-1 .7-1.2 1.4-.1.3-.6.4-.9.6-1.1-1.5-2.2-3-3.4-4.4-1.5-1.7-3.2-3.2-5-4.5-1-.8-2.1-1.5-3.1-2.2-.8-.5-1.8-.9-2.6-1.4-1.3-.8-2.7-1.3-4.1-1.9-.3-.1-.5-.5-.9-.4s-.6.4-.8.7c-1 1.1-2.3 1.9-3.6 2.6-1.4.7-3 1.2-4.6 1.3-1.6.1-3.1 0-4.6-.5-1.3-.4-2.6-.9-3.6-1.8.2-.5.3-1.1 1-1.2.1 0 .2-.2 0-.4-.1-.1-.1-.1-.2-.1-.4-.1-.4-.6-.7-.8-.6-.3-.3.6-.7.6-.4.1-.6.3-.9.6-1.2-1.1-2.2-2.3-2.8-3.8-.5-1.1-1-2.3-1.1-3.6-.1-.9-.2-1.8-.1-2.6.1-1.3.3-2.6.9-3.9.4-.9.8-1.8 1.4-2.6 1.5-2.2 3.5-3.8 6-4.8 2.7-1.1 5.5-1.2 8.2-.3 3.2 1 5.7 2.9 7.4 5.8.4.7.7 1.4 1 2.1-.4.3-.5-.1-.7-.4s-.3-.3-.5 0c0 0 0 .1-.1.1-.6.9-.6.9-.4 1 .5.1.4.9 1 1 .2 0 .3.2.3.3.2.7.5.4.8.1.3 1.1.2 2.2.2 3.3 0 .1 0 .2-.1.3-.2.7.1 1.2.7 1.6 1.1.7 2.1 1.6 3.3 2.3.8.5 1.7.9 2.5 1.4 1.5.9 3.2 1.5 4.8 2.2 1.6.6 3.2 1.2 4.9 1.6 1.6.4 3.2.7 4.9.9.6.1.9-.1 1.2-.5 1-1.4 2.3-2.6 3.8-3.6 1.2-.8 2.3-1.7 3.7-2.3 1.2-.5 2.4-1.1 3.7-1.5 1.1-.4 2.3-.6 3.4-.9 1.2-.3 2.4-.5 3.6-.6 1.4-.1 2.8-.1 4.1-.3.9-.1 1.8-.4 2.8-.6 1.5-.4 2.9-1 4.3-1.8.9-.5 1.3-1.3 1.6-2.2.3-1.1.5-2.2.6-3.4.1-1.6 0-3.3.1-4.9v-23.6c0-.9-.1-1.8-.1-2.7-.1-1.4-.4-2.7-.6-4-.1-.5-.3-.9-.5-1.3 0-.1-.1-.2-.2-.2-.5 0-.9-.3-1.4-.4-.9-.1-1.6-.6-2.4-.9-.9-.4-1.7-.9-2.5-1.5-2.1-1.6-3.7-3.6-4.9-6-1.3-2.7-1.8-5.6-1.4-8.5.2-1.3.4-2.5.9-3.7.8-2.1 1.9-4 3.6-5.5.3.5 1.1.4 1.2 1.2 0 .2.3.1.4 0s.1-.1.1-.2c.1-.5.7-.4.8-.8.1-.4-.7-.3-.7-.8 0-.3-.2-.5-.3-.7 1.1-1 2.2-1.7 3.6-2.2.2-.1.4-.2.5-.3 1.2-.5 2.4-.8 3.7-.9.7-.1 1.4-.2 2.1-.2 2.4.1 4.6.5 6.7 1.6 2.9 1.5 5.3 3.6 6.9 6.4.6 1.1 1.1 2.2 1.4 3.4.3 1.1.6 2.3.6 3.5.1 1.9-.1 3.9-.8 5.7-.3 1-.7 1.9-1.2 2.8-1.2 2.1-2.6 3.9-4.6 5.3-.7.5-1.4.9-2.2 1.4-.3.2-.5.4-.7.8-.8 2.5-1.1 5.1-1.2 7.7 0 1.1-.1 2.1-.1 3.2 0 .8-.1 1.6-.1 2.4 0 1 0 2.1-.1 3.1-.1.6-.1 1.3 0 2v4.4c0 1 .1 2 .1 3 0 .8 0 1.7.1 2.6.1.7 0 1.3.1 2 .1 1.5.4 3.1.6 4.6.2 1.3.7 2.5 1 3.8.2.8.5.9 1.4.9.8 0 1.6 0 2.4.1 2.3.3 4.6.7 6.8 1.5 1.8.7 3.6 1.4 5.2 2.5.4.3.8.6 1.1.9-.3.2-.7.3-.7.8 0 .3-.3.4-.5.4-.3 0-.5-.1-.6-.4-.1-.2-.1-.5-.3-.4-.2 0-.3.2-.3.4-.1.5-.8.3-.8.8 0 .4.7.2.8.7.1.6 1 .6 1.1 1.2 0 .1.2.1.3 0 .6-.9 1.6-1.4 2.2-2.3 1.6 1.6 2.6 3.5 3.3 5.7.2.6.3 1.3.4 2 .2 1.2.4 2.5.6 3.7.1.4.3.8.4 1.2.4 1.6 1.2 3 1.9 4.4 1.3 2.3 3 4.3 4.9 6.1 1.5 1.4 2.8 3 3.8 4.9.5.9 1 1.7 1.3 2.7.4 1.2.9 2.4 1.2 3.7.3 1.5.5 2.9.5 4.4 0 1 0 2-.2 3-.1.8-.2 1.5-.3 2.3-.1.8-.3 1.5-.5 2.2s-.4 1.4-.6 2c-.8 1.8-1.6 3.6-2.8 5.1-1.1 1.4-2.2 2.7-3.6 3.8-1.9 1.5-3.8 3-6 3.9-.7.3-1.4.8-2.1 1-1.2.3-2.2 1-3.5 1.1-.5 0-.8.5-.8.9-.1 1.2-.2 2.4-.2 3.6.1 1.7.3 3.3.8 5 .5 1.8 1.3 3.5 2.1 5.1.4.7.9 1.4 1.3 2 .7 1 1.4 1.9 2 2.9.2.3.4.3.8.2 1.3-.4 2.6-.5 4-.6 1.7 0 3.4.3 5 .9 1.2.4 2.2 1.1 3.3 1.9.9.6 1.6 1.4 2.3 2.2 1 1.3 1.9 2.7 2.4 4.3.3 1.1.6 2.2.7 3.4.2 1.5.1 2.9-.3 4.2zm2.7-90.5c-1.1-.8-1.8-1.8-2.3-3.1-.3-.9-.6-1.8-.6-2.7 0-1 .2-1.9.6-2.9.4-.9.9-1.8 1.6-2.5 1.3-1.3 2.8-1.9 4.6-2 1.9-.1 3.8-.4 5.7-.9 1.5-.5 2.9-1.2 4.1-2.2 1.2-1.1 1.9-2.4 2.2-4 .2-1.5-.2-2.8-.5-4.3-.2-1.5 0-2.9.7-4.2.5-.9 1-1.6 1.8-2.3.6-.5 1.3-.9 2-1.2 3.5-1.4 6.3-3.5 8.6-6.5.4-.5.7-1.1 1.1-1.6.9-1.5 0-3.7-1.9-4.1-1.1-.3-2 0-2.7.8-.9.9-1.6 1.9-2.4 2.8-1.1 1.3-2.6 2.2-4.1 2.9l-1.5.6c-1.2.3-2.2 0-3.1-.8-.7-.6-.8-1.5-.6-2.4l.3-2.7c0-1-.1-2-.1-3.1 0-.7-.1-1.3-.2-2-.2-1.4-.1-2.8 0-4.2.1-1.1.5-2.2 1-3.2.6-1.2 1.4-2.3 2.3-3.3 1.1-1.1 2.5-1.9 4-2.3 1.4-.4 2.7-.8 3.9-1.5.8-.5 1.5-1.2 2.3-1.8 1.2-1.1 2.3-2.4 3.2-3.8.3-.4.4-.9.6-1.3 1-2.2 1.3-4.5.7-6.9-.5-2-1.5-3.7-2.9-5.1-.6-.7-1.4-1.2-2.1-1.8a9.64 9.64 0 01-2.9-4.2c-.4-1.4-.5-2.8-.2-4.2.5-2.3 1.7-4.1 3.6-5.5.7-.5 1.5-.6 2.2-1.1.1-.1.4 0 .5-.1.2-.1.3 0 .4.1.2.2.4.3.5 0 .1-.2.4-.3.6-.3.5-.1.8.7 1.1.5.4-.2.6-.4 1.1-.4.4 0 .6.7 1 .2.6 0 1.1.4 1.6.7 2.2 1.3 3.6 3.1 4.2 5.5.1.5.2 1 .2 1.6 0 .9.1 1.7.1 2.6.1 2.3.5 4.5 1.5 6.5.8 1.5 1.8 2.8 3.1 3.9 1.1 1 2.4 1.7 3.8 2.2 2.4.9 4.8 1.1 7.3.7 2.5-.3 4.7-1.3 6.7-2.7 1.4-.9 2.6-2 3.8-3.1 1.1-1 3.1-.5 3.4 1.1.3 1.8.7 3.5 1 5.3.1.5.3.9.4 1.3.6 2.4 1.9 4.3 3.8 5.9.8.7 1.5 1.4 2.3 2.1 1.3 1 .7 2.9-.7 3.5-1.6.8-3.3 1.1-5.1 1-1.6-.1-3.1-.3-4.6-.7-.5-.1-1 0-1.4.2-1.6.8-2.5 2.4-1.5 4.2.3.5.7.9 1.3 1.1 2 .6 4 1 6 1 1 0 2.1-.1 3.1-.3 2.5-.5 4.8-1.5 6.8-3.1 1.9-1.6 2.9-3.6 2.8-6.1 0-1-.2-2.1-.5-3.1-.4-1.7-.5-3.4.2-5.1.7-1.5 1.7-2.7 3.1-3.5 1.1-.7 2.3-1 3.6-1.1 1.2-.1 2.4.1 3.5.7 1.9 1 3.3 2.5 3.9 4.6.5 1.6.6 3.3-.1 4.9-.6 1.5-1.5 2.8-3.1 3.6-1 .5-2 1.1-2.9 1.8-1 .8-1.7 1.7-2.3 2.8-.8 1.6-.9 3.4-.8 5.1 0 1.6.1 3.2.3 4.8.2 1.1.5 2.2.8 3.3.5 1.8.7 3.6.8 5.4.2 2.7 0 5.3-.2 8 0 .1-.1.3-.1.4-.2-.1-.2-.4-.4-.4-.5.6-1.1 1.2-1.8 1.7-.2.2-.3.3 0 .5s.5.4.7.7.4.3.5-.1c.1-.4.3-.7.8-.4 0 1.9.4 3.7 1.1 5.5-.4.3-.7.2-.9-.3-.2-.5-.4-.4-.6 0-.1.4-.7.4-.8.7 0 .4.6.3.7.7.2.7.4.5.7 0 .1-.3.4-.4.6-.4.3 0 .5.1.6.4.1.4.3.5.7.5.6.7 1.2 1.5 1.9 2.2.4.5.6 1 .6 1.6.1.7-.3 1.3-.8 1.7-.4.3-.9.5-1.4.6-1.8 0-3.5.4-5.2.9-2.7.8-5 2.3-6.6 4.7-.8 1.1-1.3 2.4-1.5 3.8-.2 1 .1 2.1.6 3.1.8 1.6 2 2.7 3.7 3.4.6.2 1.2.2 1.8.4.6.2 1.2.3 1.8.6 1.4.6 2.4 1.6 3 3 .8 1.7.9 3.4.5 5.2-.6 2.5-2 4.4-4.4 5.4-1.4.6-2.9.8-4.4.4-1.1-.3-2.1-.6-3-1.3-1.3-1-2.3-2.1-2.7-3.7-.4-1.3-.3-2.7-.2-4.1.2-2 .2-4.1-.7-6-.7-1.5-2-2.5-3.6-2.8-1.2-.2-2.4-.4-3.6-.5-1-.1-1.9-.1-2.9 0-1.1.1-2.2.2-3.3.4-2.1.4-4.1 1-6.1 1.9-.4.2-.9.2-1.3.4-.2.1-.5.1-.8 0-1.5-.4-2.4-1.4-2.8-2.8-.2-.8-.1-1.7.5-2.4.9-1.1 2-1.9 3.2-2.5 1.1-.6 2.2-1.2 3.3-1.7 1.2-.6 2.1-2.9.6-4.4-.3-.3-.6-.5-.8-.7.3-.5.3-1.1 1-1.2.2 0 .2-.3 0-.4l-.1-.1c-.5-.1-.4-.6-.7-.8-.6-.3-.3.6-.7.7-.4.1-.6.3-.7.7-.1.2-.3.2-.4.3-.3.1-.2.3-.1.5-1.9.6-3.7 1.5-5.5 2.5-.9.5-1.7 1.2-2.5 1.9-.6.5-1.1 1.2-1.7 1.7-.5-.1-1-.1-1.2-.8-.1-.3-.4-.3-.5.1s-.3.5-.6.6c-.2.1-.4.3-.2.4.6.2.7.7.9 1 .1.1.3.1.4.3-.6 1-1.1 2.1-1.6 3.1-.6 1.5-.9 3-1.3 4.5-.4 1.3-.5 2.6-1.1 3.8-.1.1 0 .3-.1.5-.3 1.4-1.2 2.2-2.6 2.2-1.7 0-2.6-.6-3-2.3-.1-.5-.4-1-.5-1.5-.3-1.5-.9-2.9-1.3-4.4-.3-1-.9-2-1.3-2.9-.7-1.4-1.8-2.6-2.9-3.6-.8-.7-1.7-1.2-2.6-1.5-2.6-1-5.2-1-7.9-.4-2.2.5-3.8 1.8-5.1 3.5-.9 1.2-1.7 2.5-2.2 4-.8 2.2-2.3 3.7-4.5 4.4-2.4 1-4.9.6-7-1.1zm99.9 80c-3.5.3-6.6-1.6-8.1-4.7l-4.1.4-3.1 1.5c-.7.3-1.2 1-1.3 1.8-.3 2.1-.8 4.1-1.6 6.1-.3.7-.2 1.4.1 2l1.1 2 3.1 2.1c1.6-.6 3.5-.5 5.1.6 2.6 1.8 3.3 5.4 1.3 8-1.7 2.2-4.8 2.8-7.2 1.4-1.5-.9-2.4-2.4-2.7-4l-3.4-2.3-2.1-.3c-.7-.1-1.5.2-2 .7-1.8 1.7-3.9 3.2-6.1 4.4-.7.4-1.2 1.2-1.3 2l-.3 4.4 1.4 5.4c2.3.6 4.2 2.5 4.8 4.9.9 3.8-1.4 7.6-5.2 8.4-3.4.8-6.9-1.2-8-4.6-.8-2.6-.1-5.3 1.7-7.1l-1.4-5.4-2.1-3.4c-.6-.9-1.6-1.4-2.6-1.4-1.8 0-3.6-.2-5.4-.5-1-.2-2.1.1-2.8.9l-2.8 2.9-3.1 6.4c.7 1.5.8 3.3 0 4.9-1.4 2.9-4.9 4-7.7 2.4-2.4-1.4-3.5-4.4-2.4-6.9.7-1.7 2.2-2.9 3.9-3.3l3.1-6.5.6-4.3c.1-.8-.2-1.6-.8-2.1-2.5-2-4.6-4.4-6.3-7.2-.4-.7-1.2-1.1-2-1.1h-4.3l-4.8 1.5c-.3 3-2.4 5.6-5.4 6.5-4.1 1.3-8.4-1-9.7-5-1.3-4 .9-8.4 4.9-9.8 2.8-.9 5.8-.2 7.8 1.7l5-1.6 3.7-2.6c.5-.4.8-1 .8-1.7-.1-.7-.1-1.5-.1-2.2 0-4.1.9-8 2.5-11.5.2-.5.2-1.1 0-1.6l-1.1-2.2-3-2.2c-1.7.5-3.5.3-5-.8-2.5-1.9-3-5.6-.9-8 1.8-2.1 5-2.5 7.3-1 1.5 1 2.3 2.5 2.4 4.1l3.3 2.5 3.3.6c2.4-2.2 5.2-4 8.3-5.3l.8-4.7-1-4.9c-2.9-.7-5.3-3-5.9-5.9-.9-4.2 2-8.3 6.4-9.1 4.4-.8 8.8 1.9 9.7 6.1.7 3.1-.8 6.2-3.4 7.9l.9 4.6 2.3 3.6c.1.2.4.4.7.4 5.2 0 10.1 1.4 14.2 4 .2.1.5.2.8 0l3.6-1.6 4.2-4.5c-.2-1.6.2-3.3 1.4-4.6 2.2-2.3 5.9-2.4 8.1-.1 2 2 2 5.3.2 7.4-1.2 1.4-2.9 2-4.6 1.9l-4.2 4.5-1.3 3.6c-.1.3-.1.5.1.8 1.6 2.2 2.9 4.8 3.8 7.4.2.7.8 1.3 1.6 1.5l3.4.9 4.4-.4c1.1-3.1 3.8-5.5 7.1-5.8 4.5-.5 8.5 3.1 8.9 7.9.4 4.5-3 8.7-7.5 9.2zm152.9 572.9c-.2.6-.3 1.3-.6 1.9-1 2.4-2.5 4.4-4.7 5.9-1.8 1.3-3.9 2.2-6.1 2.5-.7.1-1.5.1-2.2.1-1.3 0-2.6-.3-3.9-.7-.7-.2-1.4-.6-2.1-1-.9-.5-1.7-1-2.5-1.7-1.3-1.1-2.3-2.4-3.1-3.9-.3-.6-.6-1.1-.8-1.7-.7-2.1-1-4.2-.6-6.4.3-1.8.8-3.4 1.7-4.9.6-.9 1.2-1.8 2-2.6.9-.9 1-1 .4-2.1-.7-1.2-1.2-2.4-1.9-3.6-1.8-2.9-3.7-5.7-6.8-7.5-.5-.3-.9-.5-1.4-.8-.3-.2-.6-.1-.8.2-.7.8-1.6 1.6-2.5 2.2-1.8 1.3-3.8 2.2-5.9 2.8-1.7.5-3.4.8-5.2.9-2.4.1-4.8 0-7.2-.5-1.2-.3-2.3-.6-3.4-1-2.8-1-5.2-2.4-7.4-4.3-.8-.7-1.5-1.4-2.2-2.2-.3-.3-.5-.4-.9-.2-.8.3-1.6.6-2.4 1-.9.4-1.7 1-2.5 1.5-1.4 1-2.7 2.1-3.8 3.3-.9 1-1.8 2.1-2.6 3.3-1.1 1.6-2 3.3-2.9 5-.4.7-.7 1.5-.9 2.2-.1.3-.2.6-.7.5.3.8.9 1.2 1.2 1.9.4.8.6 1.5.8 2.4.3 1 .3 1.9.3 2.9 0 1.2-.2 2.5-.6 3.7-.5 1.7-1.4 3-2.7 4.2-.8.8-1.8 1.3-2.8 1.7-.6.2-1.2.4-1.8.5-1 .2-2.1.3-3.2.3-.8 0-1.5-.2-2.3-.3-1.1-.2-2.1-.6-2.9-1.3-2.2-1.7-3.6-4.1-4.2-6.8-.2-1-.5-1.9-.4-2.9.1-1.5.5-3 1.2-4.4.7-1.3 1.5-2.4 2.6-3.3 1.3-1.1 2.8-1.8 4.6-2.1 1.4-.2 2.8-.3 4.1 0 .5.1.8 0 1.1-.5 1.7-2.4 3.3-4.8 4.8-7.3 1.4-2.4 2.7-4.9 3.7-7.5.5-1.1.7-2.3 1.2-3.4.2-.4.1-.7-.3-.9-.9-.5-1.8-1.1-2.7-1.8-1.3-1-2.5-2.1-3.4-3.4-.9-1.2-1.8-2.4-2.4-3.8-.5-1.3-1.1-2.5-1.4-3.9-.3-1.1-.5-2.3-.7-3.4-.1-1-.3-2-.2-3 0-.7.1-1.4.1-2.2.1-1.3.3-2.6.6-3.9.2-.8.4-1.5.6-2.3.6-1.6 1.2-3.1 2-4.6.8-1.6 1.6-3.2 2.1-5 .2-.8.3-1.5.4-2.3.2-.9-.1-1.7-.6-2.4-.1-.1-.1-.2-.2-.3.4-.1.8-.1.9-.7.1-.5.9-.4 1.1.1.3.7.5.6.7 0 .1-.4.8-.3.7-.7 0-.4-.6-.3-.8-.7-.2-.6-1-.6-1.1-1.2 0-.1-.2-.1-.3 0-.1.7-1 .7-1.2 1.4-.1.3-.6.4-.9.6-1.1-1.5-2.2-3-3.4-4.4-1.5-1.7-3.2-3.2-5-4.5-1-.8-2.1-1.5-3.1-2.2-.8-.5-1.8-.9-2.6-1.4-1.3-.8-2.7-1.3-4.1-1.9-.3-.1-.5-.5-.9-.4s-.6.4-.8.7c-1 1.1-2.3 1.9-3.6 2.6-1.4.7-3 1.2-4.6 1.3s-3.1 0-4.6-.5c-1.3-.4-2.6-.9-3.6-1.8.2-.5.3-1.1 1-1.2.1 0 .2-.2 0-.4-.1-.1-.1-.1-.2-.1-.4-.1-.4-.6-.7-.8-.6-.3-.3.6-.7.6-.4.1-.6.3-.9.6-1.2-1.1-2.2-2.3-2.8-3.8-.5-1.1-1-2.3-1.1-3.6-.1-.9-.2-1.8-.1-2.6.1-1.3.3-2.6.9-3.9.4-.9.8-1.8 1.4-2.6 1.5-2.2 3.5-3.8 6-4.8 2.7-1.1 5.5-1.2 8.2-.3 3.2 1 5.7 2.9 7.4 5.8.4.7.7 1.4 1 2.1-.4.3-.5-.1-.7-.4-.2-.3-.3-.3-.5 0 0 0 0 .1-.1.1-.6.9-.6.9-.4 1 .5.1.4.9 1 1 .2 0 .3.2.3.3.2.7.5.4.8.1.3 1.1.2 2.2.2 3.3 0 .1 0 .2-.1.3-.2.7.1 1.2.7 1.6 1.1.7 2.1 1.6 3.3 2.3.8.5 1.7.9 2.5 1.4 1.5.9 3.2 1.5 4.8 2.2 1.6.6 3.2 1.2 4.9 1.6 1.6.4 3.2.7 4.9.9.6.1.9-.1 1.2-.5 1-1.4 2.3-2.6 3.8-3.6 1.2-.8 2.3-1.7 3.7-2.3 1.2-.5 2.4-1.1 3.7-1.5 1.1-.4 2.3-.6 3.4-.9 1.2-.3 2.4-.5 3.6-.6 1.4-.1 2.8-.1 4.1-.3.9-.1 1.8-.4 2.8-.6 1.5-.4 2.9-1 4.3-1.8.9-.5 1.3-1.3 1.6-2.2.3-1.1.5-2.2.6-3.4.1-1.6 0-3.3.1-4.9V798c0-.9-.1-1.8-.1-2.7-.1-1.4-.4-2.7-.6-4-.1-.5-.3-.9-.5-1.3 0-.1-.1-.2-.2-.2-.5 0-.9-.3-1.4-.4-.9-.1-1.6-.6-2.4-.9-.9-.4-1.7-.9-2.5-1.5-2.1-1.6-3.7-3.6-4.9-6-1.3-2.7-1.8-5.6-1.4-8.5.2-1.3.4-2.5.9-3.7.8-2.1 1.9-4 3.6-5.5.3.5 1.1.4 1.2 1.2 0 .2.3.1.4 0s.1-.1.1-.2c.1-.5.7-.4.8-.8.1-.4-.7-.3-.7-.8 0-.3-.2-.5-.3-.7 1.1-1 2.2-1.7 3.6-2.2.2-.1.4-.2.5-.3 1.2-.5 2.4-.8 3.7-.9.7-.1 1.4-.2 2.1-.2 2.4.1 4.6.5 6.7 1.6 2.9 1.5 5.3 3.6 6.9 6.4.6 1.1 1.1 2.2 1.4 3.4.3 1.1.6 2.3.6 3.5.1 1.9-.1 3.9-.8 5.7-.3 1-.7 1.9-1.2 2.8-1.2 2.1-2.6 3.9-4.6 5.3-.7.5-1.4.9-2.2 1.4-.3.2-.5.4-.7.8-.8 2.5-1.1 5.1-1.2 7.7 0 1.1-.1 2.1-.1 3.2 0 .8-.1 1.6-.1 2.4 0 1 0 2.1-.1 3.1-.1.6-.1 1.3 0 2v4.4c0 1 .1 2 .1 3 0 .8 0 1.7.1 2.6.1.7 0 1.3.1 2 .1 1.5.4 3.1.6 4.6.2 1.3.7 2.5 1 3.8.2.8.5.9 1.4.9.8 0 1.6 0 2.4.1 2.3.3 4.6.7 6.8 1.5 1.8.7 3.6 1.4 5.2 2.5.4.3.8.6 1.1.9-.3.2-.7.3-.7.8 0 .3-.3.4-.5.4-.3 0-.5-.1-.6-.4-.1-.2-.1-.5-.3-.4-.2 0-.3.2-.3.4-.1.5-.8.3-.8.8 0 .4.7.2.8.7.1.6 1 .6 1.1 1.2 0 .1.2.1.3 0 .6-.9 1.6-1.4 2.2-2.3 1.6 1.6 2.6 3.5 3.3 5.7.2.6.3 1.3.4 2 .2 1.2.4 2.5.6 3.7.1.4.3.8.4 1.2.4 1.6 1.2 3 1.9 4.4 1.3 2.3 3 4.3 4.9 6.1 1.5 1.4 2.8 3 3.8 4.9.5.9 1 1.7 1.3 2.7.4 1.2.9 2.4 1.2 3.7.3 1.5.5 2.9.5 4.4 0 1 0 2-.2 3-.1.8-.2 1.5-.3 2.3-.1.8-.3 1.5-.5 2.2s-.4 1.4-.6 2c-.8 1.8-1.6 3.6-2.8 5.1-1.1 1.4-2.2 2.7-3.6 3.8-1.9 1.5-3.8 3-6 3.9-.7.3-1.4.8-2.1 1-1.2.3-2.2 1-3.5 1.1-.5 0-.8.5-.8.9-.1 1.2-.2 2.4-.2 3.6.1 1.7.3 3.3.8 5 .5 1.8 1.3 3.5 2.1 5.1.4.7.9 1.4 1.3 2 .7 1 1.4 1.9 2 2.9.2.3.4.3.8.2 1.3-.4 2.6-.5 4-.6 1.7 0 3.4.3 5 .9 1.2.4 2.2 1.1 3.3 1.9.9.6 1.6 1.4 2.3 2.2 1 1.3 1.9 2.7 2.4 4.3.3 1.1.6 2.2.7 3.4.2 1.6.1 2.9-.3 4.2zm2.6-90.4c-1.1-.8-1.8-1.8-2.3-3.1-.3-.9-.6-1.8-.6-2.7 0-1 .2-1.9.6-2.9.4-.9.9-1.8 1.6-2.5 1.3-1.3 2.8-1.9 4.6-2 1.9-.1 3.8-.4 5.7-.9 1.5-.5 2.9-1.2 4.1-2.2 1.2-1.1 1.9-2.4 2.2-4 .2-1.5-.2-2.8-.5-4.3-.2-1.5 0-2.9.7-4.2.5-.9 1-1.6 1.8-2.3.6-.5 1.3-.9 2-1.2 3.5-1.4 6.3-3.5 8.6-6.5.4-.5.7-1.1 1.1-1.6.9-1.5 0-3.7-1.9-4.1-1.1-.3-2 0-2.7.8-.9.9-1.6 1.9-2.4 2.8-1.1 1.3-2.6 2.2-4.1 2.9l-1.5.6c-1.2.3-2.2 0-3.1-.8-.7-.6-.8-1.5-.6-2.4l.3-2.7c0-1-.1-2-.1-3.1 0-.7-.1-1.3-.2-2-.2-1.4-.1-2.8 0-4.2.1-1.1.5-2.2 1-3.2.6-1.2 1.4-2.3 2.3-3.3 1.1-1.1 2.5-1.9 4-2.3 1.4-.4 2.7-.8 3.9-1.5.8-.5 1.5-1.2 2.3-1.8 1.2-1.1 2.3-2.4 3.2-3.8.3-.4.4-.9.6-1.3 1-2.2 1.3-4.5.7-6.9-.5-2-1.5-3.7-2.9-5.1-.6-.7-1.4-1.2-2.1-1.8a9.64 9.64 0 01-2.9-4.2c-.4-1.4-.5-2.8-.2-4.2.5-2.3 1.7-4.1 3.6-5.5.7-.5 1.5-.6 2.2-1.1.1-.1.4 0 .5-.1.2-.1.3 0 .4.1.2.2.4.3.5 0 .1-.2.4-.3.6-.3.5-.1.8.7 1.1.5.4-.2.6-.4 1.1-.4.4 0 .6.7 1 .2.6 0 1.1.4 1.6.7 2.1 1.3 3.6 3.1 4.2 5.5.1.5.2 1 .2 1.6 0 .9.1 1.7.1 2.6.1 2.3.5 4.5 1.5 6.5.8 1.5 1.8 2.8 3.1 3.9 1.1 1 2.4 1.7 3.8 2.2 2.4.9 4.8 1.1 7.3.7 2.5-.3 4.7-1.3 6.7-2.7 1.4-.9 2.6-2 3.8-3.1 1.1-1 3.1-.5 3.4 1.1.3 1.8.7 3.5 1 5.3.1.5.3.9.4 1.3.6 2.4 1.9 4.3 3.8 5.9.8.7 1.5 1.4 2.3 2.1 1.3 1 .7 2.9-.7 3.5-1.6.8-3.3 1.1-5.1 1-1.6-.1-3.1-.3-4.6-.7-.5-.1-1 0-1.4.2-1.6.8-2.5 2.4-1.5 4.2.3.5.7.9 1.3 1.1 2 .6 4 1 6 1 1 0 2.1-.1 3.1-.3 2.5-.5 4.8-1.5 6.8-3.1 1.9-1.6 2.9-3.6 2.8-6.1 0-1-.2-2.1-.5-3.1-.4-1.7-.5-3.4.2-5.1.7-1.5 1.7-2.7 3.1-3.5 1.1-.7 2.3-1 3.6-1.1 1.2-.1 2.4.1 3.5.7 1.9 1 3.3 2.5 3.9 4.6.5 1.6.6 3.3-.1 4.9-.6 1.5-1.5 2.8-3.1 3.6-1 .5-2 1.1-2.9 1.8-1 .8-1.7 1.7-2.3 2.8-.8 1.6-.9 3.4-.8 5.1 0 1.6.1 3.2.3 4.8.2 1.1.5 2.2.8 3.3.5 1.8.7 3.6.8 5.4.2 2.7 0 5.3-.2 8 0 .1-.1.3-.1.4-.2-.1-.2-.4-.4-.4-.5.6-1.1 1.2-1.8 1.7-.2.2-.3.3 0 .5s.5.4.7.7.4.3.5-.1c.1-.4.3-.7.8-.4 0 1.9.4 3.7 1.1 5.5-.4.3-.7.2-.9-.3-.2-.5-.4-.4-.6 0-.1.4-.7.4-.8.7 0 .4.6.3.7.7.2.7.4.5.7 0 .1-.3.4-.4.6-.4.3 0 .5.1.6.4.1.4.3.5.7.5.6.7 1.2 1.5 1.9 2.2.4.5.6 1 .6 1.6.1.7-.3 1.3-.8 1.7-.4.3-.9.5-1.4.6-1.8 0-3.5.4-5.2.9-2.7.8-5 2.3-6.6 4.7-.8 1.1-1.3 2.4-1.5 3.8-.2 1 .1 2.1.6 3.1.8 1.6 2 2.7 3.7 3.4.6.2 1.2.2 1.8.4.6.2 1.2.3 1.8.6 1.4.6 2.4 1.6 3 3 .8 1.7.9 3.4.5 5.2-.6 2.5-2 4.4-4.4 5.4-1.4.6-2.9.8-4.4.4-1.1-.3-2.1-.6-3-1.3-1.3-1-2.3-2.1-2.7-3.7-.4-1.3-.3-2.7-.2-4.1.2-2 .2-4.1-.7-6-.7-1.5-2-2.5-3.6-2.8-1.2-.2-2.4-.4-3.6-.5-1-.1-1.9-.1-2.9 0-1.1.1-2.2.2-3.3.4-2.1.4-4.1 1-6.1 1.9-.4.2-.9.2-1.3.4-.2.1-.5.1-.8 0-1.5-.4-2.4-1.4-2.8-2.8-.2-.8-.1-1.7.5-2.4.9-1.1 2-1.9 3.2-2.5 1.1-.6 2.2-1.2 3.3-1.7 1.2-.6 2.1-2.9.6-4.4-.3-.3-.6-.5-.8-.7.3-.5.3-1.1 1-1.2.2 0 .2-.3 0-.4l-.1-.1c-.5-.1-.4-.6-.7-.8-.6-.3-.3.6-.7.7-.4.1-.6.3-.7.7-.1.2-.3.2-.4.3-.3.1-.2.3-.1.5-1.9.6-3.7 1.5-5.5 2.5-.9.5-1.7 1.2-2.5 1.9-.6.5-1.1 1.2-1.7 1.7-.5-.1-1-.1-1.2-.8-.1-.3-.4-.3-.5.1-.1.4-.3.5-.6.6-.2.1-.4.3-.2.4.6.2.7.7.9 1 .1.1.3.1.4.3-.6 1-1.1 2.1-1.6 3.1-.6 1.5-.9 3-1.3 4.5-.4 1.3-.5 2.6-1.1 3.8-.1.1 0 .3-.1.5-.3 1.4-1.2 2.2-2.6 2.2-1.7 0-2.6-.6-3-2.3-.1-.5-.4-1-.5-1.5-.3-1.5-.9-2.9-1.3-4.4-.3-1-.9-2-1.3-2.9-.7-1.4-1.8-2.6-2.9-3.6-.8-.7-1.7-1.2-2.6-1.5-2.6-1-5.2-1-7.9-.4-2.2.5-3.8 1.8-5.1 3.5-.9 1.2-1.7 2.5-2.2 4-.8 2.2-2.3 3.7-4.5 4.4-2.3 1-4.8.6-7-1.1zm99.9 80c-3.5.3-6.6-1.6-8.1-4.7l-4.1.4-3.1 1.5c-.7.3-1.2 1-1.3 1.8-.3 2.1-.8 4.1-1.6 6.1-.3.7-.2 1.4.1 2l1.1 2 3.1 2.1c1.6-.6 3.5-.5 5.1.6 2.6 1.8 3.3 5.4 1.3 8-1.7 2.2-4.8 2.8-7.2 1.4-1.5-.9-2.4-2.4-2.7-4l-3.4-2.3-2.1-.3c-.7-.1-1.5.2-2 .7-1.8 1.7-3.9 3.2-6.1 4.4-.7.4-1.2 1.2-1.3 2l-.3 4.4 1.4 5.4c2.3.6 4.2 2.5 4.8 4.9.9 3.8-1.4 7.6-5.2 8.4-3.4.8-6.9-1.2-8-4.6-.8-2.6-.1-5.3 1.7-7.1l-1.4-5.4-2.1-3.4c-.6-.9-1.6-1.4-2.6-1.4-1.8 0-3.6-.2-5.4-.5-1-.2-2.1.1-2.8.9l-2.8 2.9-3.1 6.4c.7 1.5.8 3.3 0 4.9-1.4 2.9-4.9 4-7.7 2.4-2.4-1.4-3.5-4.4-2.4-6.9.7-1.7 2.2-2.9 3.9-3.3l3.1-6.5.6-4.3c.1-.8-.2-1.6-.8-2.1-2.5-2-4.6-4.4-6.3-7.2-.4-.7-1.2-1.1-2-1.1h-4.3l-4.8 1.5c-.3 3-2.4 5.6-5.4 6.5-4.1 1.3-8.4-1-9.7-5-1.3-4 .9-8.4 4.9-9.8 2.8-.9 5.8-.2 7.8 1.7l5-1.6 3.7-2.6c.5-.4.8-1 .8-1.7-.1-.7-.1-1.5-.1-2.2 0-4.1.9-8 2.5-11.5.2-.5.2-1.1 0-1.6l-1.1-2.2-3-2.2c-1.7.5-3.5.3-5-.8-2.5-1.9-3-5.6-.9-8 1.8-2.1 5-2.5 7.3-1 1.5 1 2.3 2.5 2.4 4.1l3.3 2.5 3.3.6c2.4-2.2 5.2-4 8.3-5.3l.8-4.7-1-4.9c-2.9-.7-5.3-3-5.9-5.9-.9-4.2 2-8.3 6.4-9.1s8.8 1.9 9.7 6.1c.7 3.1-.8 6.2-3.4 7.9l.9 4.6 2.3 3.6c.1.2.4.4.7.4 5.2 0 10.1 1.4 14.2 4 .2.1.5.2.8 0l3.6-1.6 4.2-4.5c-.2-1.6.2-3.3 1.4-4.6 2.2-2.3 5.9-2.4 8.1-.1 2 2 2 5.3.2 7.4-1.2 1.4-2.9 2-4.6 1.9l-4.2 4.5-1.3 3.6c-.1.3-.1.5.1.8 1.6 2.2 2.9 4.8 3.8 7.4.2.7.8 1.3 1.6 1.5l3.4.9 4.4-.4c1.1-3.1 3.8-5.5 7.1-5.8 4.5-.5 8.5 3.1 8.9 7.9.5 4.4-2.9 8.7-7.5 9.2z" fill="#f8faff"/></svg>