<?xml version="1.0" encoding="utf-8"?>
<!-- Generator: Adobe Illustrator 22.1.0, SVG Export Plug-In . SVG Version: 6.00 Build 0)  -->
<svg version="1.1" id="Layer_1" xmlns="http://www.w3.org/2000/svg" xmlns:xlink="http://www.w3.org/1999/xlink" x="0px" y="0px"
	 viewBox="0 0 218 286" style="enable-background:new 0 0 218 286;" xml:space="preserve">
<style type="text/css">
	.st0{fill:#FF3547;}
	.st1{fill:#FFFFFF;}
</style>
<path class="st0" d="M218,97c-1.1-0.5-0.7-1.4-0.8-2.2c-3.4-25.2-14.3-46.7-33-64.2c-4.6-4.3-9.9-7.8-15-11.7
	c-17-11.1-35.4-17.4-55.6-17.6c-0.6-0.1-1.1-0.1-1.6-0.2c-6.6-0.9-13.1,0-19.6,0.9C78.8,4.1,65.8,8.3,54,15.6
	c-0.8,0.5-1.7,0.8-2.5,1.3C31,29.5,16.3,46.9,7.3,69C2.3,81.6,0,94.9,0,108.4c0.4-1,0.8-2,1.1-3c3.2-14.6,9.1-28,17.5-40.3
	C28.3,50.4,41.2,39,56.4,29.9c17.2-9.2,35.6-14,55.1-13.7c-0.2-0.1-0.3-0.1-0.5-0.2c0.2,0,0.5,0.1,0.8,0.1c5.7,0.4,11.4,0.9,17,2
	c14,2.6,26.9,8.2,38.9,15.6c0.1-0.1,0.1-0.1,0.1-0.2c0,0.1,0,0.1,0,0.2c0.4,0.4,0.8,0.8,1.3,1.2c24.9,17.4,40.5,40.8,47.5,69.9
	c0,0-0.1,0.1-0.1,0.1c0.3,1.4,0.3,3.1,1.3,4.3c0-2.9,0-6,0-9.1c0-0.1,0.1-0.1,0.1-0.2C218,98.9,218,97.9,218,97z"/>
<path class="st1" d="M64.4,49.1C79.1,42,94.7,38.6,111,38.5c4.9,0.7,9.8,1,14.7,1.8c10.2,1.4,19.6,5.5,28.9,9.8c3.2,2,6.4,3.9,9.5,6
	c9,6,16.5,13.5,23.2,21.6c0,0,0,0.1-0.1,0.1c10.2,13.5,17.1,28.5,20.8,44.9c-0.1-5.2-0.4-10.3-1.2-15.2
	c-2.2-14.7-7.5-28.3-16.5-40.4c0,0,0.1,0,0.1-0.1c-8.9-13-20.4-23.1-34.4-30.4c-0.1,0-0.1,0.1-0.2,0.1c0,0,0-0.1,0.1-0.1
	c-2.6-0.7-4.8-2.5-7.2-3.5c-11.9-5.3-24.5-8.5-37.7-8.2C94.3,24,78.5,27.7,63.6,35.2c-12.8,6.2-23.7,15-32.4,25.9c0,0.1,0,0.2,0,0.2
	c0,0-0.1-0.1-0.1-0.1C14.8,79.7,7.8,107.4,9.5,122.5c4-19,12.2-35.2,24.5-49.7C42.8,63.2,52.8,55.4,64.4,49.1z"/>
<path class="st1" d="M191.8,213.4c-11.1-0.8-22-3.5-32.7-6.4c0.1,0.4,0.4,0.9,0.3,1c-0.1,0.1-0.2,0.2-0.3,0.4c0-0.4-0.1-0.8-0.1-1.3
	c-11.3-3.5-22.4-7.8-34-10.8c0,0,0,0,0,0c-1.3-0.9-3.3-0.4-4.5-1.6c-0.1-0.1-0.1-0.1-0.2-0.1c0,0,0.1,0,0.1,0
	c1.4-0.9,2.9-1.7,4.3-2.6c0.1,0,0.1,0.1,0.2,0.1c4-1.8,7.8-3.6,11.8-5.5c-0.1-0.1-0.1-0.2-0.2-0.4c0.1,0,0.1,0.1,0.2,0.1
	c2.6-1.4,5.6-1.9,7.9-3.7c0.1,0,0.1,0,0.2,0c2.5-0.7,4.8-1.7,7-3c-0.1,0-0.1,0-0.2-0.1c0.1,0,0.2,0,0.3-0.1c2.3-0.7,4.5-1.4,6.6-2.7
	c-0.1-0.1-0.2-0.1-0.2-0.2c0.1,0,0.1,0,0.2,0c6.9-2.3,13.8-4.8,20.8-7.2c9.9-3.3,19.9-6,30.5-6.4c-16.2-9.5-32.3-6.2-48.9-0.1
	c0.3-1.8,0.7-3.6,0.8-5.3c0.9-9.1,0.4-18.1-3.3-26.7c-1.7-6.8-5.7-12.1-11.1-17.9c0.9,8.2,1.3,15.3,1.6,22.6
	c-0.2,0.5-0.3,1.1-0.2,1.6c-1.2,7.2-3.5,14.1-6.3,20.9c-2.6,5.1-5.3,10-7.9,15c0,0,0,0.1,0,0.1c0,0,0,0,0,0
	c-3.7,5.4-7.3,10.7-11,16.3c0,0-0.1,0-0.1-0.1c-1.3,1.7-2.6,3.3-4.2,4.8c0.1,0,0.3,0,0.4,0.1c-0.1,0-0.2,0-0.2,0.1
	c-6.4-2-13-3-19.7-3.6c-0.1,0-0.2,0-0.2,0c0.1,0,0.2-0.1,0.2-0.1c2.8-5.9,5.4-11.7,8.2-17.6c0,0,0,0,0,0c6.6-11.7,13-23.6,19.6-35.5
	c0,0,0,0,0,0c6.5-10.1,13-20.3,20.4-30c0,0,0-0.1,0-0.1c5.9-7,11.5-14.2,19.9-19.7c-8.6,0.8-15.9,2.6-22.4,6.9h0
	c-7.5,3.9-13.9,9.3-19.2,15.8c-0.1,0-0.1-0.1-0.2-0.1c-5.8,5.9-9.9,12.7-14.2,19.9c-1.4-2.2-2.9-4.2-4.2-6.3c0,0,0-0.1,0.1-0.1
	c-0.5-0.8-0.9-1.6-1.5-2.3c-5.6-8.1-11.8-15.7-20.4-21.1c-9.9-7.8-21.3-12-34.3-13.7c5,5.2,9.5,10.1,14.3,14.8
	c9.3,9.1,14.3,20.4,18.7,32.3c5.4,18.3,8.1,37.2,9.1,56.3c-1.5,0.1-2.8,0.1-4.2,0.5c0,0,0,0.1-0.1,0.1c0-0.1,0-0.2,0.1-0.4
	c-2.3-0.1-4.5-0.1-6.6-0.1c-0.2,0-0.4,0.1-0.5,0.1c0.1-0.1,0.3-0.3,0.4-0.4c-3.6-10.7-6.9-21.5-9.7-32.4c-3.7-14.8-7.2-29.6-6.2-45
	c0.1-0.9,0.5-1.8-0.4-2.9C55,124.2,56,139.8,60,156c-2.1-0.5-4-1-5.7-1.4c-7.7-2.1-15.5-2.7-23.2-1.2c-0.1,0.1-0.1,0.2-0.1,0.3
	c0-0.1,0-0.2,0-0.3c-7.8,0.9-14.6,3.9-20.8,8.6c7.5,0.5,15,0.9,22.3,2c7.8,2.1,14.8,5.7,21.7,9.8l0,0c1.2,0.8,2.4,1.7,3.6,2.5
	c6.4,4.6,13,8.8,18.3,14.8c0.1,0.1,0.1,0.1,0.2,0.1c0,0,0,0-0.1,0c-6.5,0.7-13,1.8-18.9,4.4c0,0,0,0,0,0.1c0,0-0.1-0.1-0.1-0.1
	C40,201.2,25.7,210.6,14.4,225c13.4-8.1,27.3-14.6,42.6-17.9c-0.1-0.2-0.2-0.4-0.3-0.7c0.1,0.2,0.3,0.4,0.4,0.5
	c10.7-2.2,21.6-3,32.5-2.9c0.1,0.1,0.2,0.2,0.2,0.3c4.6,0.4,9.1,0.7,13.6,1.3c6.4,0.8,12.7,2,19.1,3c0.4,0.2,0.7,0.2,1,0.2
	c1.8,0.5,3.6,1.1,5.3,1.5c9.5,2.3,18.7,6.4,28.3,8.2c0.2,0.1,0.5,0.1,0.8,0.2c12.6,3.4,25.5,5.5,38.7,3.1c0,0,0,0.1,0,0.1
	c6.6-1,12.7-3.1,16.6-10.1C205.9,213.6,198.8,213.2,191.8,213.4C191.8,213.4,191.8,213.4,191.8,213.4z M158.8,217.4
	c0,0.1,0.1,0.2,0,0.3C158.8,217.6,158.8,217.5,158.8,217.4z"/>
<path class="st1" d="M104.5,83.5c-4.8,2-6.9,5.7-6.8,10.7c0,4.8,1.9,8.7,6.6,10.8c2.5,1.8,5.3,2,8.1,0.7c5-1.3,8.5-5.7,8.6-10.9
	c0.1-5.2-3.3-10-8.6-11.8C109.7,81.8,107,81.9,104.5,83.5z"/>
<path class="st0" d="M170.9,227.5c-0.2-0.1-0.3-0.1-0.4-0.1c-5.9-1.1-11.8-2.3-17.7-3.4c0,0,0,0,0,0c0,0,0-0.1,0-0.1
	c-6.9-1.8-13.6-3.8-20.5-5.6c-6.2-2.3-12.6-3.6-18.9-4.9c0,0.1,0,0.2,0,0.3c0-0.1-0.1-0.2-0.1-0.3c-5.7-1.8-11.4-2.7-17.3-2.8
	c-8.6-1.3-17.1-1.2-25.6,0.1c0,0,0,0,0,0c-7.6,0.7-14.7,2.7-21.7,5.7c-11.9,5.1-22.6,11.5-31.5,20.9c10.3-6,21.3-10.1,32.7-13.5
	c0.3,0.1,0.7,0,1.2-0.2c8.1-1.7,16.4-2.6,24.6-3.6c-0.2,0-0.3,0-0.4,0c0.1,0,0.2,0,0.3,0c7.3,0,14.4-0.1,21.7,0.5
	c5.4,0.8,10.7,1.4,16,2.2c0-0.1,0.1-0.3,0.1-0.4c0,0.1,0,0.3,0,0.4c5.8,1.2,11.7,2.5,17.5,3.6c0,0,0,0,0.1-0.1
	c6.3,2.3,12.9,3.7,19.4,5.1c0,0,0,0,0,0c0,0.1,0,0.1,0,0.2c6.5,1.3,13,2.7,19.7,2.6c0,0,0.1-0.1,0.1-0.1c0,0,0,0.1,0,0.1
	c11.1,0.9,22.1,0.6,31.5-6.7C191.2,229.1,181,228.3,170.9,227.5z"/>
<path class="st1" d="M170.7,136.4c-1.1,0.1-1.7,0.7-2.3,1.3c-4.2,4-4.2,8.5-0.1,12.4c0.7,0.8,1.3,1.3,2.4,1.2c0-0.1,0-0.2,0.1-0.4
	c0,0.2,0,0.3,0.1,0.5c3.7,1.2,7,0.1,9.1-2.9c2.1-3.1,2.1-7.2-0.1-10C177.7,135.9,174.4,135.1,170.7,136.4z"/>
<path class="st1" d="M33.2,138.5c-0.1,4.7,3.6,8.2,8.6,8.5c4.6-0.3,7.7-3,7.8-7.2c0.3-4.2-3.2-7.8-7.8-8.5
	C36.8,131.1,33.4,133.9,33.2,138.5z"/>
<path class="st0" d="M186.7,124.8c0.7-2.2,0.9-4.4,0-6.5c0,0,0,0,0,0c-2.4-26.7-15.2-46.9-38.5-60.7c0,0,0,0.1-0.1,0.1
	c-15.2-9.1-31.7-12.2-49.5-9.8c-0.1,0-0.1,0-0.2,0.1c0,0,0,0,0.1-0.1c-4.5,0.4-8.9,1.2-13.1,2.9c0,0,0,0,0,0
	c-5.6,1.4-10.9,3.9-15.9,6.9c-6.2,3.5-11.9,7.7-16.7,13c-4.9,4.6-8.9,9.8-11.8,15.6v0c-6.9,11.2-9.9,23.3-9.8,36.3
	c2.4-10.1,6.8-19.4,12.1-28.3c3.3-5.3,7.6-9.6,11.7-14.1c0,0,0.1,0,0.1,0c5-4.7,10.5-8.5,16.2-12.2c4.8-2.7,10.1-4.4,15.1-6.6
	c0,0,0,0,0,0c4.2-0.9,8.4-1.8,12.4-2.6c-0.1,0-0.1,0-0.2,0c0.1,0,0.2-0.1,0.3-0.1c17-1.7,32.8,1.3,47.7,9.4c0.3,0.3,0.4,0.5,0.7,0.7
	c20.4,12.2,33.1,29.9,38.7,52.7l0,0C186.2,122.3,186.5,123.7,186.7,124.8z"/>
</svg>
